<svg width="22" height="21" viewBox="0 0 22 21" fill="none" xmlns="http://www.w3.org/2000/svg">
<path d="M6.78947 7L5.00031 11.5H5.73684M6.78947 7L13.1053 4L19.4211 7L21 11.5H5.73684M6.78947 7V1H0.999999V3.5M20.4737 13V20H5.73684V11.5M9.42105 18V13H16.7895V20H16.2632M16.2632 13.5L9.94737 20H12.7647H14.6842H16.2632M15.1176 20H16.2632M4.15789 20H0.999999V10M3.94118 3.5H3.63158H0.999999M0.999999 3.5V5.5M3.94118 5.5H0.999999M0.999999 5.5V10M5.21053 10H0.999999M15.7059 8.14706V9.94118H10.969V8.14706H15.7059Z" stroke="white" stroke-linecap="round" stroke-linejoin="round"/>
</svg>
