<svg width="119" height="119" viewBox="0 0 119 119" fill="none" xmlns="http://www.w3.org/2000/svg">
<path fill-rule="evenodd" clip-rule="evenodd" d="M59.5 119C92.3609 119 119 92.3609 119 59.5C119 26.6391 92.3609 0 59.5 0C26.6391 0 0 26.6391 0 59.5C0 92.3609 26.6391 119 59.5 119ZM59.5 103.991C84.0717 103.991 103.991 84.0717 103.991 59.5C103.991 34.9283 84.0717 15.009 59.5 15.009C34.9283 15.009 15.009 34.9283 15.009 59.5C15.009 84.0717 34.9283 103.991 59.5 103.991Z" fill="url(#paint0_linear)"/>
<path fill-rule="evenodd" clip-rule="evenodd" d="M53.8467 15.3648C55.698 15.13 57.5848 15.009 59.4998 15.009C78.5844 15.009 94.8625 27.0254 101.181 43.9049L114.767 37.4161C105.997 15.4896 84.5575 0 59.4998 0C57.1137 0 54.7604 0.140453 52.4478 0.413543L53.8467 15.3648Z" fill="url(#paint1_linear)"/>
<path fill-rule="evenodd" clip-rule="evenodd" d="M119 59.5C119 92.3609 92.3609 119 59.5 119C49.3388 119 39.7725 116.453 31.4048 111.962L38.9273 98.9591C45.0798 102.173 52.0776 103.991 59.5 103.991C84.0717 103.991 103.991 84.0717 103.991 59.5C103.991 53.9912 102.99 48.7162 101.159 43.8471L114.709 37.2716C117.477 44.1391 119 51.6416 119 59.5Z" fill="url(#paint2_linear)"/>
<defs>
<linearGradient id="paint0_linear" x1="59.5" y1="0" x2="59.5" y2="119" gradientUnits="userSpaceOnUse">
<stop stop-color="#C2E391"/>
<stop offset="1" stop-color="#81CB97"/>
</linearGradient>
<linearGradient id="paint1_linear" x1="83.6072" y1="0" x2="83.6072" y2="43.9049" gradientUnits="userSpaceOnUse">
<stop stop-color="#FFC700"/>
<stop offset="1" stop-color="#FFE073"/>
</linearGradient>
<linearGradient id="paint2_linear" x1="75.2024" y1="37.2716" x2="75.2024" y2="119" gradientUnits="userSpaceOnUse">
<stop offset="0.348958" stop-color="#8CACFF"/>
<stop offset="1" stop-color="#5A84EE"/>
</linearGradient>
</defs>
</svg>
