<svg width="38" height="54" viewBox="0 0 38 54" fill="none" xmlns="http://www.w3.org/2000/svg">
<path d="M12.417 48.5884C12.417 49.4982 12.2562 50.2959 11.9346 50.9814C11.613 51.667 11.1517 52.196 10.5508 52.5684C9.9541 52.9408 9.26855 53.127 8.49414 53.127C7.72819 53.127 7.04476 52.9429 6.44385 52.5747C5.84294 52.2065 5.37744 51.6818 5.04736 51.0005C4.71729 50.3149 4.55013 49.5278 4.5459 48.6392V48.1821C4.5459 47.2723 4.70882 46.4725 5.03467 45.7827C5.36475 45.0887 5.82812 44.5576 6.4248 44.1895C7.02572 43.8171 7.71126 43.6309 8.48145 43.6309C9.25163 43.6309 9.93506 43.8171 10.5317 44.1895C11.1326 44.5576 11.596 45.0887 11.9219 45.7827C12.252 46.4725 12.417 47.2702 12.417 48.1758V48.5884ZM10.4873 48.1694C10.4873 47.2004 10.3138 46.464 9.9668 45.9604C9.61979 45.4569 9.12467 45.2051 8.48145 45.2051C7.84245 45.2051 7.34945 45.4548 7.00244 45.9541C6.65544 46.4492 6.47982 47.1771 6.47559 48.1377V48.5884C6.47559 49.5321 6.64909 50.2642 6.99609 50.7847C7.3431 51.3052 7.84245 51.5654 8.49414 51.5654C9.13314 51.5654 9.62402 51.3158 9.9668 50.8164C10.3096 50.3128 10.4831 49.5807 10.4873 48.6201V48.1694ZM17.5396 47.8521C17.2899 47.8182 17.0698 47.8013 16.8794 47.8013C16.1854 47.8013 15.7305 48.0361 15.5146 48.5059V53H13.6802V46.1318H15.4131L15.4639 46.9507C15.832 46.3201 16.342 46.0049 16.9937 46.0049C17.1968 46.0049 17.3872 46.0324 17.5649 46.0874L17.5396 47.8521ZM18.0156 49.5151C18.0156 48.4445 18.2547 47.5918 18.7329 46.957C19.2153 46.3223 19.8734 46.0049 20.707 46.0049C21.3757 46.0049 21.9279 46.2546 22.3638 46.7539V43.25H24.2046V53H22.5479L22.459 52.27C22.002 52.8413 21.4137 53.127 20.6943 53.127C19.8861 53.127 19.2365 52.8096 18.7456 52.1748C18.259 51.5358 18.0156 50.6493 18.0156 49.5151ZM19.8501 49.6484C19.8501 50.2917 19.9622 50.7847 20.1865 51.1274C20.4108 51.4702 20.7367 51.6416 21.1641 51.6416C21.7311 51.6416 22.131 51.4025 22.3638 50.9243V48.2139C22.1353 47.7357 21.7396 47.4966 21.1768 47.4966C20.2923 47.4966 19.8501 48.2139 19.8501 49.6484ZM28.7876 53.127C27.7804 53.127 26.9595 52.818 26.3247 52.2002C25.6942 51.5824 25.3789 50.7593 25.3789 49.731V49.5532C25.3789 48.8634 25.5122 48.2477 25.7788 47.7061C26.0454 47.1602 26.422 46.7412 26.9087 46.4492C27.3996 46.153 27.9582 46.0049 28.5845 46.0049C29.5239 46.0049 30.2624 46.3011 30.7998 46.8936C31.3415 47.486 31.6123 48.326 31.6123 49.4136V50.1626H27.2388C27.298 50.6112 27.4757 50.9709 27.772 51.2417C28.0724 51.5125 28.4512 51.6479 28.9082 51.6479C29.6149 51.6479 30.1672 51.3919 30.5649 50.8799L31.4663 51.8892C31.1912 52.2785 30.8188 52.5832 30.3491 52.8032C29.8794 53.019 29.3589 53.127 28.7876 53.127ZM28.5781 47.4902C28.2142 47.4902 27.918 47.613 27.6895 47.8584C27.4652 48.1038 27.3213 48.4551 27.2578 48.9121H29.8096V48.7661C29.8011 48.3599 29.6911 48.0467 29.4795 47.8267C29.2679 47.6024 28.9674 47.4902 28.5781 47.4902ZM36.519 47.8521C36.2694 47.8182 36.0493 47.8013 35.8589 47.8013C35.1649 47.8013 34.71 48.0361 34.4941 48.5059V53H32.6597V46.1318H34.3926L34.4434 46.9507C34.8115 46.3201 35.3215 46.0049 35.9731 46.0049C36.1763 46.0049 36.3667 46.0324 36.5444 46.0874L36.519 47.8521Z" fill="#ACACAC"/>
<path fill-rule="evenodd" clip-rule="evenodd" d="M16.3218 22.7595V6.03102C16.3218 5.3254 16.8943 4.75291 17.5999 4.75291H36.7215C37.4271 4.75291 37.9996 5.3254 37.9996 6.03102V23.0291C37.9996 23.7347 37.4271 24.3072 36.7215 24.3072H32.8273C32.4412 25.9015 31.0066 27.0864 29.2925 27.0864C27.5784 27.0864 26.1472 25.9015 25.7578 24.3072H17.8695C17.0141 24.3072 16.3218 23.6149 16.3218 22.7595ZM27.7529 24.3039C27.7535 24.305 27.7541 24.3061 27.7548 24.3072V24.3039H27.7529ZM27.5151 23.4285C27.5185 23.7467 27.6043 24.045 27.7529 24.3039H27.7448C28.0477 24.8464 28.6268 25.2158 29.2958 25.2158C29.9615 25.2158 30.544 24.8497 30.8469 24.3039H30.8302C30.96 24.0809 31.0432 23.8279 31.0632 23.5583V23.5483C31.0699 23.4784 31.0665 23.4052 31.0632 23.3353C31.01 22.4034 30.2378 21.6645 29.2925 21.6645C28.314 21.6645 27.5218 22.4533 27.5151 23.4285ZM27.8174 8.04806L19.1935 13.0273C18.8973 13.2004 18.8973 13.6331 19.1935 13.8028L27.8174 18.7821C28.1169 18.9552 28.4897 18.7388 28.4897 18.3927V15.6035H34.1812C34.6006 15.6035 34.9434 15.264 34.9434 14.8413V11.9889C34.9434 11.5695 34.6039 11.2267 34.1812 11.2267H28.4897V8.43748C28.4897 8.17454 28.2734 7.98815 28.0404 7.98815C27.9671 7.98815 27.8906 8.00479 27.8174 8.04806Z" fill="url(#paint0_linear)"/>
<path d="M4.07031 15.923V21.4348C4.07031 22.0539 4.5729 22.5531 5.18865 22.5531H8.00447C7.93457 22.8394 7.8913 23.1356 7.8913 23.4418C7.8913 25.4522 9.52221 27.0864 11.5359 27.0864C13.5496 27.0864 15.1805 25.4555 15.1805 23.4418C15.1805 23.1356 15.1372 22.8394 15.0673 22.5531H15.976V7.12938H9.10616C4.95899 7.12938 4.07031 13.1438 4.07031 15.923ZM9.75853 23.4451C9.75853 22.4633 10.554 21.6678 11.5359 21.6678C12.5178 21.6678 13.3132 22.4633 13.3132 23.4451C13.3132 24.427 12.5178 25.2225 11.5359 25.2225C10.554 25.2225 9.75853 24.427 9.75853 23.4451ZM5.84767 15.0643C5.84767 13.1138 6.47008 8.89342 9.37909 8.89342H13.5795V12.5114C10.3144 12.9907 7.45528 16.5454 6.29368 16.5454H6.28702C6.04072 16.5421 5.84767 16.3324 5.84767 16.0894V15.0643Z" fill="url(#paint1_linear)"/>
<path d="M2.71596 27.143V3.48815C2.71596 3.06212 3.06212 2.71264 3.49148 2.71264H6.78991C7.5388 2.71264 8.14789 2.10354 8.14789 1.35465C8.14789 0.605767 7.53547 0 6.78658 0H3.48815C1.56434 0 0 1.56434 0 3.48815V27.143V33.863C0 36.1496 1.85391 38.0002 4.13719 38.0002H33.8597C36.1463 38.0002 37.9969 36.1463 37.9969 33.863V27.143H2.71596Z" fill="url(#paint2_linear)"/>
<defs>
<linearGradient id="paint0_linear" x1="27.1607" y1="4.75291" x2="27.1607" y2="27.0864" gradientUnits="userSpaceOnUse">
<stop stop-color="#383960"/>
<stop offset="1" stop-color="#625D91"/>
</linearGradient>
<linearGradient id="paint1_linear" x1="10.0231" y1="7.12938" x2="10.0231" y2="27.0864" gradientUnits="userSpaceOnUse">
<stop stop-color="#383960"/>
<stop offset="1" stop-color="#625D91"/>
</linearGradient>
<linearGradient id="paint2_linear" x1="18.9984" y1="0" x2="18.9984" y2="38.0002" gradientUnits="userSpaceOnUse">
<stop stop-color="#383960"/>
<stop offset="1" stop-color="#625D91"/>
</linearGradient>
</defs>
</svg>
