<svg width="40" height="54" viewBox="0 0 40 54" fill="none" xmlns="http://www.w3.org/2000/svg">
<path d="M13.7822 45.3003H10.9512V53H9.04688V45.3003H6.25391V43.7578H13.7822V45.3003ZM17.667 53C17.5824 52.835 17.521 52.6297 17.4829 52.3843C17.0386 52.8794 16.4609 53.127 15.75 53.127C15.0771 53.127 14.5186 52.9323 14.0742 52.543C13.6341 52.1536 13.4141 51.6628 13.4141 51.0703C13.4141 50.3424 13.6828 49.7839 14.2202 49.3945C14.7619 49.0052 15.5426 48.8084 16.5625 48.8042H17.4067V48.4106C17.4067 48.0933 17.3242 47.8394 17.1592 47.6489C16.9984 47.4585 16.7424 47.3633 16.3911 47.3633C16.0822 47.3633 15.8389 47.4373 15.6611 47.5854C15.4876 47.7336 15.4009 47.9367 15.4009 48.1948H13.5664C13.5664 47.797 13.6891 47.4289 13.9346 47.0903C14.18 46.7518 14.527 46.4873 14.9756 46.2969C15.4242 46.1022 15.9277 46.0049 16.4863 46.0049C17.3327 46.0049 18.0034 46.2186 18.4985 46.646C18.9979 47.0692 19.2476 47.6659 19.2476 48.436V51.4131C19.2518 52.0648 19.3428 52.5578 19.5205 52.8921V53H17.667ZM16.1499 51.7241C16.4207 51.7241 16.6704 51.6649 16.8989 51.5464C17.1274 51.4237 17.2967 51.2607 17.4067 51.0576V49.877H16.7212C15.8029 49.877 15.3141 50.1943 15.2549 50.8291L15.2485 50.937C15.2485 51.1655 15.3289 51.3538 15.4897 51.502C15.6506 51.6501 15.8706 51.7241 16.1499 51.7241ZM24.3765 51.1021C24.3765 50.8778 24.2643 50.7021 24.04 50.5752C23.82 50.444 23.4645 50.3276 22.9736 50.2261C21.3402 49.8833 20.5234 49.1893 20.5234 48.144C20.5234 47.5347 20.7752 47.0269 21.2788 46.6206C21.7866 46.2101 22.4489 46.0049 23.2656 46.0049C24.1374 46.0049 24.8335 46.2101 25.354 46.6206C25.8787 47.0311 26.1411 47.5643 26.1411 48.2202H24.3066C24.3066 47.9578 24.222 47.742 24.0527 47.5728C23.8835 47.3993 23.619 47.3125 23.2593 47.3125C22.9504 47.3125 22.7113 47.3823 22.542 47.522C22.3727 47.6616 22.2881 47.8394 22.2881 48.0552C22.2881 48.2583 22.3833 48.4233 22.5737 48.5503C22.7684 48.673 23.0942 48.7809 23.5513 48.874C24.0083 48.9629 24.3934 49.0645 24.7065 49.1787C25.6756 49.5342 26.1602 50.1499 26.1602 51.0259C26.1602 51.6522 25.8914 52.16 25.354 52.5493C24.8166 52.9344 24.1226 53.127 23.272 53.127C22.6965 53.127 22.1844 53.0254 21.7358 52.8223C21.2915 52.6149 20.9424 52.3335 20.6885 51.978C20.4346 51.6183 20.3076 51.2311 20.3076 50.8164H22.0469C22.0638 51.1423 22.1844 51.3919 22.4087 51.5654C22.633 51.7389 22.9334 51.8257 23.3101 51.8257C23.6613 51.8257 23.9258 51.7601 24.1035 51.6289C24.2855 51.4935 24.3765 51.3179 24.3765 51.1021ZM29.8418 50.2451L29.1816 50.9053V53H27.3472V43.25H29.1816V48.6519L29.5371 48.1948L31.2954 46.1318H33.498L31.0161 48.9946L33.7139 53H31.6064L29.8418 50.2451Z" fill="#ACACAC"/>
<path d="M38.6514 23.5842H37.7232H36.6171H36.1181H35.4796C35.5808 23.483 35.7029 23.3609 36.0239 23.0399C37.1614 21.9024 38.299 20.7614 39.4365 19.6239C39.5691 19.4913 39.7052 19.3552 39.8412 19.2226C39.754 19.1249 39.7889 19.1668 39.7017 19.0656C37.7546 20.6323 36.809 21.1941 34.8376 22.7817C34.7922 22.8166 34.7259 22.7852 34.7259 22.7294V20.0147C34.7259 20.0077 34.7294 20.0077 34.7329 20.0007V20.2764V20.6672C34.7329 20.6323 34.7573 20.6044 34.7922 20.5974C35.4063 20.5136 36.003 20.4648 36.5822 20.3427C37.5208 20.1403 38.3094 19.6762 38.8293 18.8353C39.2236 18.2002 39.426 17.4989 39.4853 16.7626C39.5167 16.3614 39.4958 15.9566 39.4923 15.5414C39.4923 15.5065 39.4644 15.4751 39.4295 15.4716C38.7316 15.4193 38.0408 15.4786 37.3603 15.653C36.2717 15.9322 35.4168 16.5044 34.9318 17.5512C34.9074 17.6001 34.8864 17.6524 34.862 17.7013C34.8306 17.7676 34.7329 17.7466 34.7294 17.6733C34.712 16.9964 34.712 16.323 34.7085 15.653C34.7085 15.4925 34.7678 15.4507 34.9248 15.4367C35.4796 15.3878 36.0414 15.3599 36.5822 15.2413C37.7477 14.9866 38.627 14.3445 39.098 13.2105C39.4016 12.4847 39.5272 11.7241 39.5307 10.939C39.5307 10.6878 39.5307 10.4365 39.5307 10.1853C39.5307 10.1853 36.9975 10.4958 36.488 10.8692C35.8355 11.3437 35.2284 11.759 34.9074 12.5022C34.8585 12.6173 34.8027 12.7325 34.7503 12.8476C34.712 12.4394 34.705 12.0346 34.7189 11.6334C34.7224 11.5391 34.7748 11.431 34.8376 11.3507C35.1307 10.9739 35.4691 10.6284 35.7308 10.2307C36.3833 9.2362 36.6381 8.16847 36.2089 7.00653C36.017 6.48662 35.7343 6.02255 35.4028 5.59336L35.1865 5.32817C35.1621 5.30026 35.1376 5.27583 35.1132 5.24792L34.3246 4.7978L33.9966 4.98971C33.557 5.4503 33.1697 5.94927 32.8801 6.51803C32.6847 6.90534 32.5486 7.29963 32.4928 7.70788L32.4893 7.75324C32.4404 8.14753 32.4614 8.55229 32.573 8.96403C32.7789 9.72121 33.1522 10.3981 33.7001 10.9494C34.0734 11.3263 34.2444 11.7171 34.1746 12.237C34.1467 12.4324 34.1711 12.6383 34.1711 12.8372C34.1153 12.8127 34.1013 12.7883 34.0943 12.7639C33.7733 11.9265 33.2499 11.2635 32.4195 10.8797C32.3951 10.8692 32.3776 10.8552 32.3567 10.8413C32.3427 10.8378 32.3357 10.8343 32.3218 10.8273C31.3238 10.4958 29.3873 10.2307 29.3628 10.2272C29.3628 10.4156 29.3628 10.604 29.3628 10.7924C29.3663 11.3821 29.4466 11.9788 29.5757 12.5545C29.8269 13.6676 30.4585 14.512 31.5332 14.9761C32.2625 15.2936 33.0301 15.4227 33.8222 15.4262C33.9129 15.4262 34.0036 15.4262 34.0943 15.4262C34.1327 15.4262 34.1641 15.4576 34.1641 15.496V18.0083C34.1258 17.9176 34.1118 17.8862 34.0978 17.8548C33.7768 17.0174 33.2499 16.3649 32.43 15.9636C31.8263 15.6705 31.1912 15.517 30.5283 15.4646C30.1689 15.4367 29.806 15.4576 29.4501 15.4576C29.4152 15.4576 29.3873 15.4821 29.3838 15.5135C29.2791 16.2672 29.478 17.6036 29.7711 18.2561C29.97 18.6957 30.2107 19.1075 30.5667 19.4389C31.2436 20.0705 32.0775 20.3392 32.9673 20.4613C33.3372 20.5136 33.714 20.5206 34.0943 20.5416C34.1292 20.545 34.1572 20.573 34.1572 20.6113V20.0077L34.1606 20.0112V22.7084C34.1606 22.7677 34.0943 22.7991 34.049 22.7608C31.7216 20.8905 30.769 20.3845 28.4766 18.5387C28.4696 18.612 28.487 18.6504 28.5184 18.6818C29.0942 19.254 29.6734 19.8228 30.2491 20.395C31.1459 21.2918 30.7027 20.8486 31.5995 21.7489C32.2066 22.356 32.8138 22.9631 33.4244 23.5668H23.1309H21.47C21.6375 23.3993 21.7422 23.2946 22.2656 22.7712C23.6892 21.3476 25.1094 19.9239 26.533 18.5003C26.7005 18.3328 26.868 18.1653 27.0355 17.9979C26.9238 17.8722 26.9727 17.9246 26.861 17.8025C24.4255 19.7774 23.2426 20.4822 20.7791 22.4677C20.7233 22.513 20.6396 22.4746 20.6396 22.4014V19.0098C20.6396 19.0028 20.6466 18.9993 20.6466 18.9923V19.3377V19.8228C20.6466 19.7809 20.678 19.7425 20.7198 19.739C21.4875 19.6343 22.2307 19.575 22.9565 19.418C24.1289 19.1668 25.1164 18.5841 25.7654 17.5373C26.2574 16.7452 26.5086 15.8659 26.5854 14.9447C26.6272 14.4422 26.5958 13.9363 26.5923 13.4164C26.5923 13.371 26.5574 13.3326 26.5121 13.3292C25.6398 13.2629 24.7779 13.3361 23.9265 13.5525C22.5692 13.9014 21.4979 14.6167 20.8908 15.9287C20.8629 15.9915 20.835 16.0543 20.8071 16.1171C20.7687 16.2009 20.6466 16.1764 20.6431 16.0857C20.6186 15.2378 20.6221 14.4004 20.6152 13.5629C20.6152 13.364 20.6884 13.3117 20.8838 13.2943C21.5782 13.2315 22.2796 13.2001 22.9565 13.05C24.4115 12.729 25.5107 11.9299 26.1038 10.5133C26.4842 9.60258 26.6412 8.65348 26.6447 7.67648C26.6447 7.36244 26.6447 7.0484 26.6447 6.73436C26.6447 6.73436 23.4799 7.12168 22.8413 7.58924C22.0248 8.18243 21.2677 8.70233 20.8664 9.63398C20.8036 9.77704 20.7338 9.9201 20.6675 10.0632C20.6186 9.55024 20.6117 9.04778 20.6256 8.54532C20.6291 8.42668 20.6989 8.2906 20.7722 8.19289C21.1385 7.72184 21.5608 7.28916 21.8887 6.79368C22.7018 5.55149 23.0228 4.21508 22.4854 2.76353C22.2447 2.11103 21.8922 1.53181 21.477 0.997942L21.2083 0.666458C21.1804 0.631565 21.1455 0.600161 21.1176 0.568757L20.1301 0L19.7184 0.240762C19.1671 0.816498 18.6856 1.44108 18.3262 2.1529C18.0819 2.63792 17.9109 3.12991 17.8412 3.63935L17.8342 3.69518C17.7714 4.18717 17.7993 4.69312 17.9389 5.20954C18.1936 6.15514 18.6646 7.00304 19.345 7.69044C19.8126 8.16149 20.0255 8.64999 19.9382 9.29901C19.9033 9.54326 19.9312 9.79798 19.9312 10.0492C19.8615 10.0213 19.8475 9.98989 19.8335 9.95849C19.4288 8.91169 18.7763 8.08124 17.74 7.6032C17.7086 7.58925 17.6841 7.5718 17.6597 7.55784C17.6423 7.55086 17.6318 7.54737 17.6143 7.54039C16.3652 7.12517 13.9436 6.79717 13.9122 6.79019C13.9122 7.02747 13.9122 7.26125 13.9157 7.49852C13.9227 8.23477 14.0204 8.98497 14.1844 9.70028C14.5019 11.0925 15.287 12.1463 16.6304 12.729C17.5446 13.1233 18.5006 13.2873 19.4916 13.2943C19.6033 13.2943 19.7149 13.2943 19.8301 13.2943C19.8789 13.2943 19.9173 13.3326 19.9173 13.3815V16.5219C19.8684 16.4102 19.851 16.3718 19.837 16.33C19.4358 15.2832 18.7763 14.4667 17.7504 13.9677C16.9967 13.6013 16.2012 13.4059 15.3742 13.3431C14.9241 13.3082 14.474 13.3326 14.0273 13.3361C13.9855 13.3361 13.9506 13.3675 13.9436 13.4094C13.811 14.348 14.0587 16.0194 14.4286 16.8359C14.6763 17.3872 14.9764 17.8967 15.4231 18.3119C16.2675 19.1005 17.3108 19.4354 18.4239 19.589C18.8879 19.6518 19.359 19.6623 19.8335 19.6902C19.8789 19.6937 19.9138 19.732 19.9138 19.7774V19.0237C19.9138 19.0272 19.9173 19.0272 19.9173 19.0307V22.4014C19.9173 22.4746 19.8335 22.513 19.7777 22.4677C16.8711 20.1263 15.6778 19.4948 12.8131 17.1883C12.8026 17.2791 12.827 17.3279 12.8654 17.3663C13.5877 18.0816 14.31 18.7899 15.0288 19.5087C16.1523 20.6288 15.594 20.0775 16.7141 21.1975C17.5132 21.9966 18.3087 22.7922 19.1113 23.5877H16.7141H7.02081C7.122 23.4865 7.24412 23.3644 7.56514 23.0434C8.70265 21.9059 9.84017 20.7649 10.9777 19.6274C11.1103 19.4948 11.2464 19.3587 11.3824 19.2261C11.2952 19.1284 11.3301 19.1703 11.2429 19.0691C9.29584 20.6358 8.35023 21.1975 6.37877 22.7852C6.33341 22.8201 6.26712 22.7887 6.26712 22.7328V20.0182C6.26712 20.0112 6.27061 20.0112 6.2741 20.0042V20.2799V20.6707C6.2741 20.6358 6.29852 20.6079 6.33341 20.6009C6.94753 20.5171 7.5442 20.4683 8.12343 20.3462C9.06205 20.1438 9.85064 19.6797 10.3705 18.8388C10.7648 18.2037 10.9672 17.5024 11.0265 16.7661C11.0579 16.3649 11.037 15.9601 11.0335 15.5449C11.0335 15.51 11.0056 15.4786 10.9707 15.4751C10.2728 15.4227 9.58196 15.4821 8.90154 15.6565C7.81288 15.9357 6.958 16.5079 6.47299 17.5547C6.44856 17.6036 6.42762 17.6559 6.4032 17.7048C6.3718 17.771 6.2741 17.7501 6.27061 17.6768C6.25316 16.9999 6.25316 16.3265 6.24967 15.6565C6.24967 15.496 6.30899 15.4541 6.46601 15.4402C7.02081 15.3913 7.58259 15.3634 8.12343 15.2448C9.28886 14.9901 10.1682 14.348 10.6392 13.214C10.9428 12.4882 11.0684 11.7276 11.0719 10.9425C11.0719 10.6912 11.0719 10.44 11.0719 10.1888C11.0719 10.1888 8.53866 10.4993 8.02922 10.8727C7.37672 11.3472 6.76958 11.7625 6.44856 12.5057C6.39971 12.6208 6.34388 12.736 6.29154 12.8511C6.25316 12.4429 6.24618 12.0381 6.26014 11.6368C6.26363 11.5426 6.31597 11.4345 6.37877 11.3542C6.67188 10.9774 7.01034 10.6319 7.27204 10.2341C7.92454 9.23969 8.17926 8.17196 7.75007 7.01002C7.55816 6.49011 7.27553 6.02604 6.94404 5.59685L6.72771 5.33166C6.70328 5.30375 6.67885 5.27932 6.65443 5.25141L5.86585 4.80129L5.53785 4.9932C5.0982 5.45379 4.71089 5.95276 4.42127 6.52152C4.22587 6.90883 4.08979 7.30312 4.03396 7.71137L4.03047 7.75673C3.98162 8.15102 4.00256 8.55578 4.11421 8.96752C4.32008 9.7247 4.69344 10.4016 5.24126 10.9529C5.61462 11.3298 5.78559 11.7206 5.71581 12.2405C5.68789 12.4359 5.71232 12.6418 5.71232 12.8407C5.65649 12.8162 5.64253 12.7918 5.63555 12.7674C5.31454 11.9299 4.79114 11.267 3.96068 10.8832C3.93626 10.8727 3.91881 10.8587 3.89788 10.8448C3.88392 10.8413 3.87694 10.8378 3.86298 10.8308C2.86504 10.4993 0.928476 10.2341 0.90405 10.2307C0.90405 10.4191 0.90405 10.6075 0.90405 10.7959C0.90754 11.3856 0.987794 11.9823 1.1169 12.558C1.36813 13.6711 1.99969 14.5155 3.0744 14.9796C3.80367 15.2971 4.57131 15.4262 5.36339 15.4297C5.45411 15.4297 5.54483 15.4297 5.63206 15.4297C5.67044 15.4297 5.70185 15.4611 5.70185 15.4995V18.0118C5.66347 17.9211 5.64951 17.8897 5.63555 17.8583C5.31454 17.0208 4.78765 16.3683 3.96766 15.9671C3.36401 15.674 2.72896 15.5204 2.06599 15.4681C1.70659 15.4402 1.3437 15.4611 0.987794 15.4611C0.952901 15.4611 0.924986 15.4855 0.921497 15.517C0.816818 16.2706 1.01571 17.607 1.30881 18.2596C1.5077 18.6992 1.74846 19.1109 2.10437 19.4424C2.7813 20.074 3.61524 20.3427 4.50502 20.4648C4.87488 20.5171 5.25173 20.5241 5.63206 20.545C5.66696 20.5485 5.69487 20.5765 5.69487 20.6148V20.0112L5.69836 20.0147V22.7119C5.69836 22.7712 5.63206 22.8026 5.5867 22.7642C3.25933 20.894 2.30675 20.388 0.0142769 18.5422C0.00729828 18.6155 0.0247448 18.6538 0.0561486 18.6852C0.631884 19.2575 1.21111 19.8262 1.78685 20.3985C2.6836 21.2952 2.24046 20.8521 3.13721 21.7523C3.74435 22.3595 4.35149 22.9666 4.96212 23.5703H3.7269H3.21397H2.70453H2.11484H1.18668C0.132913 23.5703 -0.397462 24.795 0.34925 25.5138L9.89251 34.6802C10.3531 35.1234 11.1033 35.1234 11.5674 34.6802L11.7872 34.4709L11.7907 34.4674C11.9093 34.3557 11.9198 34.1848 11.8221 34.0626C11.8151 34.0522 11.8116 34.0417 11.8012 34.0312L8.01875 30.4023C7.85824 30.2488 7.83033 29.9976 7.97339 29.8301C8.13739 29.6382 8.43398 29.6277 8.61193 29.8022L10.7474 31.8644C10.7544 31.8713 10.7648 31.8748 10.7753 31.8818L13.9576 34.9629L19.0799 39.8863C19.5439 40.3294 20.2906 40.3294 20.7547 39.8863L25.2838 35.5351L31.2052 29.8126C31.3657 29.6591 31.6239 29.6277 31.7984 29.7638C32.0008 29.9208 32.0112 30.2069 31.8333 30.3779L28.0509 34.0312C27.9218 34.1568 27.9218 34.3592 28.0509 34.4813L28.0544 34.4848L28.2742 34.6942C28.7383 35.1373 29.4885 35.1373 29.9491 34.6942L39.4888 25.5278C40.2355 24.809 39.7052 23.5842 38.6514 23.5842Z" fill="url(#paint0_linear)"/>
<defs>
<linearGradient id="paint0_linear" x1="19.9206" y1="0" x2="19.9206" y2="40.2186" gradientUnits="userSpaceOnUse">
<stop stop-color="#36375C"/>
<stop offset="1" stop-color="#625D91"/>
</linearGradient>
</defs>
</svg>
