<svg width="29" height="18" viewBox="0 0 29 18" fill="none" xmlns="http://www.w3.org/2000/svg">
<path fill-rule="evenodd" clip-rule="evenodd" d="M3 1H26C27.1046 1 28 1.89543 28 3V15C28 16.1046 27.1046 17 26 17H3C1.89543 17 1 16.1046 1 15V3C1 1.89543 1.89543 1 3 1ZM0 3C0 1.34315 1.34315 0 3 0H26C27.6569 0 29 1.34315 29 3V15C29 16.6569 27.6569 18 26 18H3C1.34315 18 0 16.6569 0 15V3ZM10.8595 5.7808C10.8595 6.7643 10.0265 7.56159 8.99903 7.56159C7.97152 7.56159 7.13856 6.7643 7.13856 5.7808C7.13856 4.79729 7.97152 4 8.99903 4C10.0265 4 10.8595 4.79729 10.8595 5.7808ZM6.15847 9.09089C6.97746 8.58602 7.9518 8.29228 8.99903 8.29228C10.0463 8.29228 11.0225 8.58602 11.8396 9.09089C13.3855 10.0437 13.3855 12.2468 11.8396 13.1996C11.0206 13.7044 10.0463 13.9982 8.99903 13.9982C7.9518 13.9982 6.97746 13.7044 6.15847 13.1996C4.61256 12.2468 4.61256 10.0437 6.15847 9.09089ZM16.45 5C16.45 4.69624 16.6962 4.45 17 4.45L23 4.45C23.3038 4.45 23.55 4.69624 23.55 5C23.55 5.30376 23.3038 5.55 23 5.55L17 5.55C16.6962 5.55 16.45 5.30376 16.45 5ZM17 8.45C16.6962 8.45 16.45 8.69624 16.45 9C16.45 9.30376 16.6962 9.55 17 9.55H23C23.3038 9.55 23.55 9.30376 23.55 9C23.55 8.69624 23.3038 8.45 23 8.45L17 8.45ZM16.45 13C16.45 12.6962 16.6962 12.45 17 12.45H23C23.3038 12.45 23.55 12.6962 23.55 13C23.55 13.3038 23.3038 13.55 23 13.55L17 13.55C16.6962 13.55 16.45 13.3038 16.45 13Z" fill="url(#paint0_linear)"/>
<defs>
<linearGradient id="paint0_linear" x1="14.5" y1="0" x2="14.5" y2="18" gradientUnits="userSpaceOnUse">
<stop stop-color="#5A84EE"/>
<stop offset="1" stop-color="#5A84EE"/>
</linearGradient>
</defs>
</svg>
