<svg width="34" height="36" viewBox="0 0 34 36" fill="none" xmlns="http://www.w3.org/2000/svg">
<path fill-rule="evenodd" clip-rule="evenodd" d="M23.7081 5.7234C22.9897 5.30859 22.071 5.55475 21.6561 6.27323L20.905 7.57423L20.0313 7.06981C17.6399 5.6891 14.5819 6.50848 13.2012 8.89994L10.0784 14.3087C9.91511 14.3227 9.75472 14.3768 9.61267 14.4706L3.06946 18.7908C2.4491 19.2004 2.47667 20.1196 3.12045 20.4913L21.1325 30.8906C21.7763 31.2623 22.5862 30.8265 22.6307 30.0845L23.1005 22.2578C23.1083 22.1284 23.0908 22.0013 23.0513 21.8824L26.2103 16.4108C27.591 14.0193 26.7717 10.9613 24.3802 9.58063L23.5068 9.07639L24.258 7.77539C24.6728 7.05692 24.4266 6.13821 23.7081 5.7234ZM9.8732 29.5938C7.91148 28.4612 7.12345 26.0764 7.93584 24.032L15.6586 28.4907C14.2942 30.2165 11.8349 30.7264 9.8732 29.5938Z" fill="#5983EB"/>
</svg>
