<svg width="29" height="18" viewBox="0 0 29 18" fill="none" xmlns="http://www.w3.org/2000/svg">
<path d="M9.00011 7.56159C10.0276 7.56159 10.8606 6.7643 10.8606 5.7808C10.8606 4.79729 10.0276 4 9.00011 4C7.97261 4 7.13965 4.79729 7.13965 5.7808C7.13965 6.7643 7.97261 7.56159 9.00011 7.56159Z" fill="#5A84EE"/>
<path d="M9 8.29228C7.95277 8.29228 6.97842 8.58602 6.15943 9.09089C4.61352 10.0437 4.61352 12.2468 6.15943 13.1996C6.97842 13.7044 7.95277 13.9982 9 13.9982C10.0472 13.9982 11.0216 13.7044 11.8406 13.1996C13.3865 12.2468 13.3865 10.0437 11.8406 9.09089C11.0235 8.58602 10.0472 8.29228 9 8.29228Z" fill="#5A84EE"/>
<rect x="16" y="5" width="8" height="1" rx="0.5" fill="#5A84EE"/>
<rect x="16" y="9" width="8" height="1" rx="0.5" fill="#5A84EE"/>
<rect x="16" y="13" width="8" height="1" rx="0.5" fill="#5A84EE"/>
<path fill-rule="evenodd" clip-rule="evenodd" d="M3 0C1.34326 0 0 1.34314 0 3V15C0 16.6569 1.34326 18 3 18H26C27.6567 18 29 16.6569 29 15V3C29 1.34314 27.6567 0 26 0H3ZM3 1C1.89551 1 1 1.89543 1 3V15C1 16.1046 1.89551 17 3 17H26C27.1045 17 28 16.1046 28 15V3C28 1.89543 27.1045 1 26 1H3Z" fill="#5A84EE"/>
</svg>
