<svg width="25" height="24" viewBox="0 0 25 24" fill="none" xmlns="http://www.w3.org/2000/svg">
<path d="M7.6579 7.94737L5.60036 13.1579H6.44737M7.6579 7.94737L14.9211 4.47368L22.1842 7.94737L24 13.1579H6.44737M7.6579 7.94737V1H1V3.89474M23.3947 14.8947V23H6.44737V13.1579M10.6842 20.6842V14.8947H19.1579V23H18.5526M18.5526 15.4737L11.2895 23H14.5294H16.7368H18.5526M17.2353 23H18.5526M4.63158 23H1V11.4211M4.38235 3.89474H4.02632H1M1 3.89474V6.21053M4.38235 6.21053H1M1 6.21053V11.4211M5.84211 11.4211H1M17.9118 9.27554V11.3529H12.4644V9.27554H17.9118Z" stroke="#5A84EE" stroke-width="1.1" stroke-linecap="round" stroke-linejoin="round"/>
<rect x="13" y="9" width="5" height="2" fill="#5A84EE"/>
</svg>
