<svg width="23" height="25" viewBox="0 0 23 25" fill="none" xmlns="http://www.w3.org/2000/svg">
<mask id="path-1-inside-1" fill="white">
<path fill-rule="evenodd" clip-rule="evenodd" d="M20.0491 12.8416C22.9868 9.90389 22.9868 5.14095 20.0491 2.20327C17.1114 -0.734421 12.3484 -0.734422 9.41076 2.20327C7.19803 4.41599 6.65198 7.66426 7.7726 10.3881L0 18.1607L0.000317058 24.8886L5.60047 19.8742V18.3878H7.2605L7.91507 17.8017V16.0732H9.84547L11.7021 14.4108C14.4583 15.6215 17.7923 15.0984 20.0491 12.8416ZM16.7759 5.47658C17.9058 6.60646 17.9058 8.43836 16.7759 9.56824C15.646 10.6981 13.8141 10.6981 12.6842 9.56824C11.5544 8.43836 11.5544 6.60647 12.6842 5.47659C13.8141 4.3467 15.646 4.3467 16.7759 5.47658Z"/>
</mask>
<path d="M20.0491 2.20327L20.8269 1.42545V1.42545L20.0491 2.20327ZM20.0491 12.8416L19.2713 12.0638L20.0491 12.8416ZM9.41076 2.20327L8.63294 1.42545L9.41076 2.20327ZM7.7726 10.3881L8.55042 11.1659C8.86434 10.852 8.95878 10.3801 8.78987 9.96957L7.7726 10.3881ZM0 18.1607L-0.777817 17.3829C-0.98412 17.5892 -1.10001 17.869 -1.1 18.1607L0 18.1607ZM0.000317058 24.8886L-1.09968 24.8887C-1.09966 25.3225 -0.844593 25.7159 -0.44846 25.8929C-0.0523271 26.0699 0.410853 25.9975 0.734095 25.7081L0.000317058 24.8886ZM5.60047 19.8742L6.33425 20.6937C6.56729 20.485 6.70047 20.187 6.70047 19.8742H5.60047ZM5.60047 18.3878V17.2878C4.99296 17.2878 4.50047 17.7803 4.50047 18.3878H5.60047ZM7.2605 18.3878V19.4878C7.53128 19.4878 7.79255 19.3879 7.99428 19.2073L7.2605 18.3878ZM7.91507 17.8017L8.64884 18.6212C8.88189 18.4125 9.01507 18.1145 9.01507 17.8017H7.91507ZM7.91507 16.0732V14.9732C7.30755 14.9732 6.81507 15.4657 6.81507 16.0732H7.91507ZM9.84547 16.0732V17.1732C10.1163 17.1732 10.3775 17.0733 10.5792 16.8927L9.84547 16.0732ZM11.7021 14.4108L12.1445 13.4037C11.7496 13.2302 11.2897 13.3035 10.9683 13.5913L11.7021 14.4108ZM16.7759 5.47658L17.5537 4.69877L17.5537 4.69877L16.7759 5.47658ZM12.6842 9.56824L11.9064 10.3461H11.9064L12.6842 9.56824ZM12.6842 5.47659L11.9064 4.69877V4.69877L12.6842 5.47659ZM19.2713 2.98108C21.7794 5.48919 21.7794 9.55565 19.2713 12.0638L20.8269 13.6194C24.1942 10.2521 24.1942 4.79271 20.8269 1.42545L19.2713 2.98108ZM10.1886 2.98108C12.6967 0.472972 16.7631 0.472972 19.2713 2.98108L20.8269 1.42545C17.4596 -1.94182 12.0002 -1.94182 8.63294 1.42545L10.1886 2.98108ZM8.78987 9.96957C7.83224 7.6419 8.30064 4.86902 10.1886 2.98108L8.63294 1.42545C6.09543 3.96296 5.47172 7.68662 6.75533 10.8066L8.78987 9.96957ZM0.777817 18.9385L8.55042 11.1659L6.99478 9.61027L-0.777817 17.3829L0.777817 18.9385ZM1.10032 24.8885L1.1 18.1606L-1.1 18.1607L-1.09968 24.8887L1.10032 24.8885ZM4.8667 19.0547L-0.733461 24.0691L0.734095 25.7081L6.33425 20.6937L4.8667 19.0547ZM6.70047 19.8742V18.3878H4.50047V19.8742H6.70047ZM5.60047 19.4878H7.2605V17.2878H5.60047V19.4878ZM7.18129 16.9822L6.52672 17.5683L7.99428 19.2073L8.64884 18.6212L7.18129 16.9822ZM9.01507 17.8017V16.0732H6.81507V17.8017H9.01507ZM7.91507 17.1732H9.84547V14.9732H7.91507V17.1732ZM10.9683 13.5913L9.11169 15.2537L10.5792 16.8927L12.4359 15.2303L10.9683 13.5913ZM19.2713 12.0638C17.3457 13.9893 14.4995 14.4381 12.1445 13.4037L11.2597 15.4179C14.417 16.8048 18.2388 16.2074 20.8269 13.6194L19.2713 12.0638ZM17.5537 10.3461C19.1132 8.7866 19.1132 6.25822 17.5537 4.69877L15.9981 6.2544C16.6984 6.95471 16.6984 8.09012 15.9981 8.79043L17.5537 10.3461ZM11.9064 10.3461C13.4659 11.9055 15.9943 11.9055 17.5537 10.3461L15.9981 8.79043C15.2978 9.49073 14.1624 9.49073 13.4621 8.79043L11.9064 10.3461ZM11.9064 4.69877C10.347 6.25822 10.347 8.7866 11.9064 10.3461L13.4621 8.79043C12.7618 8.09012 12.7618 6.95471 13.4621 6.2544L11.9064 4.69877ZM17.5537 4.69877C15.9943 3.13931 13.4659 3.13931 11.9064 4.69877L13.4621 6.2544C14.1624 5.5541 15.2978 5.5541 15.9981 6.2544L17.5537 4.69877Z" fill="#5A84EE" mask="url(#path-1-inside-1)"/>
<circle cx="14.3638" cy="7.38852" r="3.5" fill="#5A84EE"/>
</svg>
