<svg width="23" height="26" viewBox="0 0 23 26" fill="none" xmlns="http://www.w3.org/2000/svg">
<path fill-rule="evenodd" clip-rule="evenodd" d="M15.6274 2.30109C17.3898 5.34708 18.3986 8.88368 18.3986 12.6559C18.3986 16.4281 17.3898 19.9647 15.6274 23.0107L19.613 25.3118C21.7671 21.5889 23 17.2664 23 12.6559C23 8.0454 21.7671 3.72288 19.613 0L15.6274 2.30109Z" fill="#5983EB"/>
<path fill-rule="evenodd" clip-rule="evenodd" d="M0 11.3237C0.226766 11.7156 0.356557 12.1706 0.356557 12.656C0.356557 13.1413 0.226775 13.5963 2.40841e-05 13.9882L3.46108 15.9864C4.02794 15.0067 4.35238 13.8692 4.35238 12.6559C4.35238 11.4427 4.02794 10.3052 3.46109 9.32545L0 11.3237Z" fill="#5983EB"/>
<path fill-rule="evenodd" clip-rule="evenodd" d="M6.92236 7.32713C7.82934 8.89466 8.34846 10.7147 8.34846 12.656C8.34846 14.5972 7.82936 16.4172 6.9224 17.9847L11.5372 20.6491C12.8977 18.2978 13.6764 15.5678 13.6764 12.6559C13.6764 9.74403 12.8977 7.01401 11.5373 4.66272L6.92236 7.32713Z" fill="#5983EB"/>
</svg>
