<svg width="28" height="23" viewBox="0 0 28 23" fill="none" xmlns="http://www.w3.org/2000/svg">
<path fill-rule="evenodd" clip-rule="evenodd" d="M2.30696 7.102C5.35295 5.40429 8.88956 4.43259 12.6618 4.43259C16.434 4.43259 19.9706 5.40428 23.0165 7.10198L25.3177 3.2626C21.5948 1.18762 17.2723 7.35149e-06 12.6618 7.55302e-06C8.05131 7.75455e-06 3.72876 1.18765 0.00585921 3.26267L2.30696 7.102Z" fill="#5983EB"/>
<path fill-rule="evenodd" clip-rule="evenodd" d="M11.3293 22.1561C11.7212 21.9377 12.1762 21.8126 12.6615 21.8126C13.1469 21.8126 13.6019 21.9377 13.9938 22.1561L15.992 18.8221C15.0123 18.2761 13.8749 17.9635 12.6616 17.9635C11.4483 17.9635 10.3108 18.2761 9.33105 18.8222L11.3293 22.1561Z" fill="#5983EB"/>
<path fill-rule="evenodd" clip-rule="evenodd" d="M7.33284 15.4878C8.90041 14.6141 10.7205 14.114 12.6618 14.114C14.603 14.114 16.423 14.614 17.9905 15.4877L20.6549 11.0422C18.3036 9.7317 15.5737 8.98165 12.6618 8.98165C9.74988 8.98165 7.01979 9.73177 4.66846 11.0424L7.33284 15.4878Z" fill="#5983EB"/>
<circle cx="22.0059" cy="5" r="5" fill="#FF6262"/>
<path d="M20.1309 3.125L22.0059 5L23.8809 6.875" stroke="white" stroke-linecap="round" stroke-linejoin="round"/>
<path d="M23.8809 3.125L22.0059 5L20.1309 6.875" stroke="white" stroke-linecap="round" stroke-linejoin="round"/>
</svg>
