<svg width="35" height="35" fill="none" xmlns="http://www.w3.org/2000/svg"><path d="M28.082 27.918l2.819 2.6a3.795 3.795 0 00-.19-5.343l-2.628 2.743zM27.885 7.351h5.384l-6.173-6.31v5.537c0 .425.354.773.789.773z" fill="#AFAFAF"/><path d="M27.975 9.35A2.777 2.777 0 0125.2 6.579V0h-14.96a3.301 3.301 0 00-3.3 3.3v2.447h-3.7A3.247 3.247 0 000 8.988v21.99a3.242 3.242 0 003.24 3.239h6.896c.036 0 .07.012.108.012h20.687c1.823 0 3.3-1.478 3.3-3.301V9.35h-6.256zM10.88 29.643h10.469a.53.53 0 110 1.06h-10.47a.53.53 0 110-1.06zm10.469-2.825h-9.528a.532.532 0 010-1.06h9.528a.53.53 0 110 1.06zM1.223 30.98V8.989A2.02 2.02 0 013.241 6.97h3.7v4.641H4.89a.61.61 0 00-.612.612.61.61 0 00.612.612h2.05v3.055H5.501a.61.61 0 00-.611.611.61.61 0 00.611.612h1.44v3.055H4.89a.61.61 0 00-.612.611.61.61 0 00.612.612h2.05v3.055H5.501a.61.61 0 00-.611.612.61.61 0 00.611.611h1.44v2.447H4.89a.61.61 0 00-.612.611.61.61 0 00.612.612h2.05v1.589c0 .788.288 1.502.747 2.068H3.241a2.02 2.02 0 01-2.018-2.017zm26.389 1.78a4.794 4.794 0 110-9.588 4.794 4.794 0 010 9.589z" fill="#AFAFAF"/><path d="M13 15.5l4.156 4.5L23 10" stroke="#fff" stroke-width="2" stroke-linecap="round" stroke-linejoin="round"/></svg>