<svg width="36" height="36" fill="none" xmlns="http://www.w3.org/2000/svg"><path d="M23.086 22.926c-.104.37-.21.792-.267 1.16 0 0-.138-.3-.333-.61.022-.098.305-1.451-.534-2.73-.867-1.329-2.545-1.53-2.545-1.53.98 1.005.142 2.815 1.175 3.7.666.57 1.26.638 1.602.616.613.789.1 2.504.028 2.598.08-.028.707-.235.833-1.363.06-.53.154-1.096.267-1.59.251.091.72.17 1.323-.128.926-.456 1.253-2.696 1.63-3.35.377-.653.65-.998.65-.998s-1.325.141-1.907.427c-1.966.965-1.963 3.195-1.922 3.798z" fill="#AFAFAF"/><path d="M35.096 23.514v1.514c0 .037-.003.075-.006.113l.016-13.326c.33-.383.483-.713.562-.89.1-.222.556-1.4-.402-2.638a6.014 6.014 0 00-.17-.207v1.347c.025 2.551-5.309 4.621-11.903 4.618-3.298 0-6.289-.515-8.456-1.354-2.168-.835-3.516-1.991-3.525-3.267V8.045c-.016.019-.035.038-.05.057-.274.317-.62.838-.707 1.514a2.58 2.58 0 00.317 1.564 3.8 3.8 0 00.45.622l-.013 11.674a3.479 3.479 0 00-.754 1.762 3.206 3.206 0 00.317 1.756c.29.575.72 1.093 1.276 1.543.848.688 1.617 1.055 2.334 1.376.61.273 2.868 1.187 6.32 1.482 3.167.27 5.727-.022 7.317-.317 1.495-.276 2.462-.606 2.57-.64.423-.148.989-.35 1.394-.525.61-.268.89-.428 1.275-.65.333-.19.98-.604 1.584-1.245.528-.559.732-1.071.832-1.316.1-.251.556-1.574-.402-2.966-.06-.072-.116-.147-.176-.223zM11.221 25.2c-.006-.056-.01-.116-.012-.172v-.833a.053.053 0 01.012-.015v1.02zm17.162 1.826c-.506.17-1.087.31-1.728.424h-.01c-.097.015-.194.034-.294.05-.013.003-.026.003-.035.006-.091.013-.185.029-.276.041l-.063.01c-.085.012-.173.021-.261.034l-.085.01-.245.028a17.93 17.93 0 01-.116.01c-.076.005-.148.015-.223.021l-.139.01-.207.015-.163.01a3.719 3.719 0 00-.189.012c-.063.003-.125.007-.188.007-.057.003-.113.006-.17.006l-.216.006c-.05 0-.098.003-.148.003-.107.003-.214.003-.324.003h-.047c-1.32 0-2.557-.116-3.625-.32a13.147 13.147 0 01-1.505-.377 6.372 6.372 0 01-.223-.079V16.543c.003 0 .003 0 .007.003.37.126 1.74.546 3.832.681 1.92.126 3.474-.009 4.439-.144.904-.126 1.495-.28 1.558-.295.192-.05.43-.113.64-.176v10.414h.004z" fill="#AFAFAF"/><path d="M33.255 29.979c-.386.22-.666.38-1.275.647a19.94 19.94 0 01-1.395.524c-.107.038-1.078.368-2.57.641-1.59.292-4.15.588-7.316.317-3.453-.295-5.711-1.209-6.32-1.482-.717-.32-1.487-.691-2.335-1.376a5.205 5.205 0 01-.854-.873l-.003 2.302c.009 1.433 1.354 2.73 3.524 3.67 2.17.939 5.158 1.52 8.457 1.52 6.594 0 11.928-2.325 11.903-5.19l.003-2.224c-.072.091-.15.185-.239.28a7.073 7.073 0 01-1.58 1.244zM14.736 11.388c2.17.939 5.158 1.52 8.457 1.52 6.594 0 11.928-2.324 11.903-5.19V6.205l.003.003v-1.57c0-.035-.006-.066-.006-.1.003.034.006.065.006.1.025 2.865-5.31 5.19-11.903 5.19-3.299 0-6.29-.582-8.457-1.521-2.167-.94-3.515-2.237-3.524-3.67l-.004 3.108c.029 1.426 1.37 2.71 3.525 3.644z" fill="#AFAFAF"/><path d="M15.107 7.832c2.152.933 5.023 1.445 8.09 1.445h.005c4.06 0 7.813-.93 9.798-2.432.902-.678 1.373-1.442 1.367-2.205-.01-1.181-1.131-2.318-3.157-3.195C29.055.512 26.184 0 23.114 0c-4.058 0-7.812.93-9.798 2.431-.898.679-1.373 1.442-1.366 2.206.006 1.18 1.13 2.315 3.157 3.195zm12.512-6.117c.899 0 1.627.233 1.627.519 0 .285-.728.518-1.627.518-.898 0-1.627-.233-1.627-.518-.003-.286.726-.519 1.627-.519zM14.089 19.42v10.04l-6.402 3.845v-12.81l6.402-1.075z" fill="#AFAFAF"/><path d="M12.04 25.185c-.731.785-.731 1.417-.715 1.58-.038.132-.079.28-.1.399 0 0-.054-.05-.127-.085.01-.031.114-.493-.197-.638-.324-.15-.952.23-.952.23.367.031.053.766.44.747.248-.012.47-.147.6-.241.229.066.037.684.009.732.028-.029.264-.252.311-.607.022-.166.057-.352.1-.521.095-.041.27-.139.497-.38.345-.371.468-1.094.61-1.38.14-.282.241-.452.241-.452s-.496.383-.716.616z" fill="#AFAFAF"/><path d="M8.033 24.462l6.06-3.794v-2.099l-.434-1.275-4.473-3.007a1.192 1.192 0 00-.415-.43c-.688-.45-1.813-.45-2.504 0-.21.135-.355.298-.437.471l-.656-.663H3.075l-1.702 1.207v1.218L0 16.882v13.181c.55.224.631.934.631.934l7.292 4.793.681-.417 5.485-3.484v-3.512l-6.056 3.728-6.861-4.451v-.239l6.86 4.427 6.06-3.795v-7.053l-6.06 3.732-6.86-4.451v-.239l6.86 4.426zm.39-8.808l-.02.01c-.006.002-.01.002-.015.005l-.085.029a.393.393 0 01-.032.01l-.053.015c-.01.003-.022.006-.031.01-.004 0-.007 0-.01.002.085-.021.163-.05.242-.081h.003zm-1.474-1.389c.314-.204.823-.204 1.134 0 .31.204.31.534-.003.739-.314.204-.823.204-1.134 0-.314-.205-.311-.534.003-.739zm.779 1.546c-.019 0-.035.003-.053.003-.013 0-.026 0-.035.003l-.05.003H7.51c.113 0 .223-.006.333-.022-.006 0-.016 0-.022.003-.022.004-.04.007-.063.007-.01.003-.019.003-.031.003zm.214-.025c-.004 0-.01 0-.013.003-.028.003-.057.01-.085.012a2.13 2.13 0 00.32-.062l-.04.009a.09.09 0 01-.029.006c-.018.003-.037.01-.053.013-.01.003-.019.003-.028.006-.022.003-.047.01-.072.013zm-.644.022c.069.006.138.012.207.012h-.126l-.06-.003h-.015l-.006-.01zm-.955 1.69c.009.003.015.01.025.012.022.013.044.025.066.035.006.003.015.006.022.012l.088.041c.006.004.009.004.015.007.025.009.05.022.076.031.003.003.01.003.012.006.007.003.013.003.02.007l.043.015c.013.003.025.01.038.013.015.003.028.01.044.012l.037.01c.016.003.032.01.044.012l.038.01.047.01c.01.002.02.002.025.005.004 0 .007 0 .01.004l.1.019c.007 0 .01 0 .016.003.028.003.06.01.088.012.003 0 .01 0 .013.003a.04.04 0 01.018.003c.02.004.038.004.057.007.013 0 .025.003.035.003l.06.003h.21c.015 0 .034 0 .05-.003.013 0 .022 0 .035-.003.018 0 .037-.003.053-.003.01 0 .019 0 .028-.003h.003c.022-.004.044-.004.063-.007.006 0 .016 0 .022-.003.028-.003.057-.006.085-.012.003 0 .01 0 .013-.004.025-.003.05-.009.072-.012.01-.003.019-.003.028-.006a.269.269 0 00.053-.013h.007c.006-.003.015-.003.022-.006.019-.007.04-.01.06-.016l.03-.01.054-.015.016-.006c.003 0 .01-.004.012-.007l.085-.028.016-.006.094-.038.01-.003c.003 0 .006-.003.01-.006l.115-.057c.003-.003.007-.003.013-.006a.872.872 0 00.091-.054v.032c0 .2-.12.399-.361.553l-.082.047c-.003 0-.006.003-.006.003a1.911 1.911 0 01-.082.038c-.003 0-.003.003-.006.003s-.003 0-.006.003c-.022.01-.044.019-.066.025-.004 0-.007.003-.01.003l-.056.019c-.004 0-.007.003-.01.003s-.006.003-.012.003a5.186 5.186 0 01-.038.01c-.006.003-.016.003-.022.006l-.04.01c-.007 0-.01.003-.017.003h-.003l-.037.009c-.007 0-.013.003-.022.003l-.05.01h-.01l-.06.009c-.006 0-.01 0-.016.003-.015.003-.028.003-.043.003h-.022c-.013 0-.026.003-.038.003h-.201c-.013 0-.029 0-.041-.003-.01 0-.016 0-.025-.003-.013 0-.025-.003-.041-.003h-.022l-.06-.01h-.01c-.021-.003-.046-.006-.068-.012H7.14l-.018-.003c-.01-.003-.022-.003-.032-.006-.01-.003-.019-.003-.025-.007-.01-.003-.022-.006-.031-.01-.01-.002-.016-.002-.025-.005l-.032-.01-.025-.01c-.01-.002-.019-.005-.028-.009l-.013-.003c-.003 0-.006-.003-.01-.003l-.053-.019c-.003 0-.006-.003-.012-.003l-.06-.028c-.006-.003-.01-.007-.016-.007-.015-.006-.031-.015-.044-.021a.069.069 0 01-.015-.01c-.02-.01-.038-.022-.057-.035l-.016-.009c-.003-.003-.009-.006-.012-.01-.006-.006-.016-.009-.022-.015a.084.084 0 01-.019-.016c-.006-.006-.013-.01-.022-.015-.006-.007-.013-.01-.019-.016l-.019-.016c-.006-.006-.012-.01-.015-.016-.007-.006-.013-.012-.02-.015-.002-.003-.006-.003-.006-.006l-.006-.007c-.01-.01-.019-.019-.028-.031l-.01-.01c-.012-.012-.021-.028-.03-.04v-.004c-.004-.003-.004-.006-.007-.01-.006-.009-.013-.015-.016-.024l-.01-.016c-.002-.01-.009-.016-.012-.025 0-.003-.003-.003-.003-.006-.003-.003-.003-.007-.003-.01a3.29 3.29 0 01-.016-.034c-.003-.007-.006-.013-.006-.02 0-.002-.003-.005-.003-.009l-.003-.009c-.004-.006-.004-.013-.007-.019s-.003-.012-.006-.019c-.003-.006-.003-.012-.003-.018 0-.004-.003-.007-.003-.01v-.006c0-.006-.003-.013-.003-.02 0-.005 0-.012-.004-.018v-.019-.012-.048l.048.029zM1.48 15.06l.722-.512h1.854l2.089 2.592-.029.556-2.287-2.75H2.278l-.17.114-.27.182v1.021l-.358.198V15.06zm8.12 9.666l3.497-2.108v5.212L9.6 30.05v-5.324z" fill="#AFAFAF"/></svg>