<svg width="35" height="35" viewBox="0 0 35 35" fill="none" xmlns="http://www.w3.org/2000/svg">
<path d="M22.4423 22.287C22.3415 22.6473 22.2377 23.0565 22.1827 23.4138C22.1827 23.4138 22.0483 23.1237 21.859 22.8214C21.8804 22.7267 22.1552 21.4105 21.3398 20.1676C20.497 18.8758 18.8662 18.6804 18.8662 18.6804C19.819 19.6576 19.0036 21.4166 20.0083 22.2778C20.6558 22.8306 21.2329 22.8977 21.5658 22.8764C22.1613 23.6429 21.6635 25.3103 21.5933 25.4019C21.6696 25.3744 22.2804 25.1729 22.4026 24.0765C22.4606 23.5604 22.5522 23.0107 22.6621 22.5313C22.9064 22.6198 23.3615 22.6962 23.9478 22.4061C24.8487 21.9633 25.1663 19.7859 25.5327 19.1507C25.8992 18.5155 26.1649 18.1796 26.1649 18.1796C26.1649 18.1796 24.8762 18.317 24.3112 18.5949C22.3995 19.5324 22.4026 21.7006 22.4423 22.287Z" fill="#9FD369"/>
<path d="M34.1177 22.858V24.3299C34.1177 24.3666 34.1146 24.4032 34.1116 24.4399L34.1269 11.4855C34.4475 11.1129 34.5971 10.7923 34.6735 10.6212C34.7712 10.4044 35.214 9.25923 34.2826 8.05601C34.2276 7.98578 34.1727 7.91859 34.1177 7.85446V9.16456C34.1421 11.6443 28.9567 13.6568 22.5467 13.6537C19.3402 13.6537 16.4329 13.1529 14.3257 12.3375C12.2186 11.5252 10.9085 10.4014 10.8993 9.16151V7.82087C10.8841 7.83919 10.8657 7.85752 10.8505 7.87584C10.5848 8.18428 10.2489 8.69121 10.1634 9.34779C10.1328 9.58904 10.1023 10.2181 10.4718 10.8686C10.5909 11.0793 10.7405 11.2809 10.9085 11.4733L10.8963 22.8213C10.881 22.8397 10.8657 22.858 10.8505 22.8794C10.5848 23.2244 10.2489 23.7955 10.1634 24.5345C10.1328 24.8033 10.1023 25.5118 10.4718 26.2416C10.7528 26.8005 11.1711 27.3044 11.7117 27.7411C12.5362 28.4099 13.2844 28.7672 13.9807 29.0787C14.5731 29.3443 16.7688 30.233 20.125 30.5201C23.2033 30.7827 25.6921 30.4987 27.2374 30.2116C28.691 29.9429 29.6316 29.6222 29.7354 29.5887C30.1477 29.4451 30.6974 29.2497 31.0913 29.0787C31.6838 28.8191 31.9556 28.6633 32.3312 28.4465C32.6549 28.2633 33.284 27.8602 33.8703 27.2372C34.3834 26.6936 34.5819 26.1958 34.6796 25.9576C34.7773 25.7133 35.2201 24.4277 34.2887 23.0748C34.2307 23.0046 34.1757 22.9313 34.1177 22.858ZM10.9085 24.4979C10.9024 24.4429 10.8993 24.3849 10.8963 24.3299V23.5207C10.8993 23.5146 10.9024 23.5115 10.9085 23.5054V24.4979ZM27.5916 26.2722C27.1 26.4371 26.535 26.5745 25.912 26.6844H25.9029C25.8082 26.6997 25.7135 26.718 25.6158 26.7333C25.6036 26.7364 25.5914 26.7364 25.5822 26.7394C25.4936 26.7516 25.402 26.7669 25.3135 26.7791C25.2951 26.7822 25.2738 26.7852 25.2524 26.7883C25.1699 26.8005 25.0844 26.8097 24.9989 26.8219C24.9714 26.8249 24.944 26.828 24.9165 26.831C24.8371 26.8402 24.7607 26.8494 24.6783 26.8585C24.6416 26.8616 24.605 26.8646 24.5653 26.8677C24.492 26.8738 24.4217 26.8829 24.3485 26.8891C24.3026 26.8921 24.2599 26.8952 24.2141 26.8982C24.1469 26.9043 24.0797 26.9074 24.0125 26.9135C23.9606 26.9165 23.9056 26.9196 23.8537 26.9226C23.7927 26.9257 23.7316 26.9288 23.6705 26.9349C23.6094 26.9379 23.5483 26.941 23.4873 26.941C23.4323 26.944 23.3773 26.9471 23.3224 26.9471C23.2521 26.9501 23.1819 26.9501 23.1116 26.9532C23.0628 26.9532 23.017 26.9562 22.9681 26.9562C22.8643 26.9593 22.7605 26.9593 22.6536 26.9593C22.6383 26.9593 22.623 26.9593 22.6078 26.9593C21.3252 26.9593 20.1219 26.8463 19.0836 26.6478C18.9218 26.6173 18.7599 26.5837 18.6072 26.5501C18.3935 26.5012 18.1889 26.4493 17.9934 26.3943C17.8651 26.3577 17.7399 26.321 17.6208 26.2813C17.5475 26.2569 17.4773 26.2325 17.404 26.205V16.0815C17.4071 16.0815 17.4071 16.0815 17.4101 16.0846C17.7705 16.2067 19.102 16.6159 21.1358 16.7472C23.0017 16.8694 24.5134 16.7381 25.4509 16.6068C26.3304 16.4846 26.9045 16.335 26.9656 16.3197C27.1519 16.2708 27.384 16.2098 27.5886 16.1487V26.2722H27.5916Z" fill="#9FD369"/>
<path d="M32.3277 29.1429C31.9521 29.3567 31.6803 29.5124 31.0879 29.772C30.6939 29.9461 30.1473 30.1385 29.732 30.282C29.6282 30.3187 28.6845 30.6393 27.2339 30.905C25.6887 31.189 23.1998 31.4761 20.1215 31.2134C16.7654 30.9264 14.5697 30.0377 13.9772 29.772C13.2809 29.4605 12.5327 29.1002 11.7082 28.4344C11.3876 28.1749 11.1097 27.8878 10.8776 27.5855L10.8745 29.8239C10.8837 31.2165 12.1907 32.4777 14.3009 33.3908C16.4111 34.3039 19.3153 34.8689 22.5219 34.8689C28.9319 34.8689 34.1173 32.609 34.0929 29.8239L34.0959 27.6618C34.0257 27.7504 33.9493 27.842 33.8638 27.9336C33.2805 28.5535 32.6515 28.9566 32.3277 29.1429Z" fill="#9FD369"/>
<path d="M14.3253 11.0702C16.4355 11.9833 19.3397 12.5483 22.5463 12.5483C28.9563 12.5483 34.1417 10.2884 34.1173 7.50333V6.03138L34.1203 6.03443V4.50751C34.1203 4.47392 34.1142 4.44338 34.1142 4.40979C34.1173 4.44338 34.1203 4.47392 34.1203 4.50751C34.1448 7.29262 28.9593 9.55246 22.5493 9.55246C19.3428 9.55246 16.4355 8.9875 14.3284 8.0744C12.2212 7.1613 10.9111 5.90006 10.902 4.50751L10.8989 7.52776C10.9264 8.91421 12.2304 10.1632 14.3253 11.0702Z" fill="#9FD369"/>
<path d="M14.6859 7.61323C16.7778 8.52022 19.569 9.01799 22.5495 9.01799H22.5556C26.5012 9.01799 30.1505 8.11406 32.0806 6.65432C32.957 5.99469 33.4151 5.25261 33.409 4.51052C33.3998 3.36228 32.3096 2.25679 30.3399 1.40477C28.2449 0.497776 25.4537 0 22.4701 0C18.5245 0 14.8752 0.903937 12.9452 2.36367C12.0718 3.0233 11.6107 3.76539 11.6168 4.50747C11.6229 5.65571 12.7161 6.75815 14.6859 7.61323ZM26.8493 1.6674C27.7227 1.6674 28.4312 1.89338 28.4312 2.17128C28.4312 2.44918 27.7227 2.67516 26.8493 2.67516C25.9759 2.67516 25.2674 2.44918 25.2674 2.17128C25.2644 1.89338 25.9729 1.6674 26.8493 1.6674Z" fill="#9FD369"/>
<path d="M13.6959 18.8789V28.639L7.47217 32.3769V19.9233L13.6959 18.8789Z" fill="#9FD369"/>
<path d="M11.7052 24.4827C10.9937 25.2462 10.9937 25.86 11.009 26.0188C10.9723 26.1471 10.9326 26.2906 10.9112 26.4066C10.9112 26.4066 10.8593 26.3578 10.7891 26.3242C10.7983 26.2936 10.899 25.8447 10.5967 25.7042C10.2822 25.5577 9.67139 25.9272 9.67139 25.9272C10.0287 25.9577 9.7233 26.6723 10.0989 26.654C10.3402 26.6418 10.557 26.5105 10.6822 26.4188C10.9051 26.483 10.7189 27.0846 10.6914 27.1304C10.7189 27.1029 10.9479 26.8861 10.9937 26.541C11.0151 26.3791 11.0487 26.199 11.0914 26.0341C11.183 25.9944 11.3541 25.8997 11.5739 25.6645C11.9099 25.3042 12.029 24.6018 12.1664 24.3239C12.3038 24.0491 12.4015 23.8842 12.4015 23.8842C12.4015 23.8842 11.919 24.2567 11.7052 24.4827Z" fill="#9FD369"/>
<path d="M7.80867 23.7803L13.6995 20.0912V18.0513L13.2781 16.8114L8.92943 13.8889C8.84698 13.7362 8.71566 13.5927 8.52633 13.4705C7.85753 13.0338 6.76426 13.0338 6.09241 13.4705C5.88781 13.6018 5.74733 13.7606 5.66793 13.9286L5.02968 13.2842H2.98971L1.33453 14.4569V15.6418L0 16.4113V29.2253C0.534422 29.4421 0.613822 30.1323 0.613822 30.1323L7.70179 34.7924L8.36447 34.3863L13.6965 30.9995V27.5854L7.80867 31.2103L1.13908 26.883V26.6509L7.80867 30.9537L13.6995 27.2647V20.4088L7.80867 24.0368L1.13908 19.7095V19.4774L7.80867 23.7803ZM8.18735 15.2173C8.18124 15.2204 8.17513 15.2234 8.16903 15.2265C8.16292 15.2295 8.15987 15.2295 8.15376 15.2326C8.12627 15.2417 8.09879 15.2509 8.0713 15.2601C8.06214 15.2631 8.05298 15.2662 8.04076 15.2692C8.02244 15.2753 8.00717 15.2784 7.98885 15.2845C7.97969 15.2875 7.96747 15.2906 7.95831 15.2936C7.95526 15.2936 7.9522 15.2936 7.94915 15.2967C8.0316 15.2753 8.10795 15.2478 8.18429 15.2173C8.18735 15.2173 8.18735 15.2173 8.18735 15.2173ZM6.7551 13.8675C7.06048 13.669 7.5552 13.669 7.85753 13.8675C8.15986 14.066 8.15986 14.3867 7.85448 14.5852C7.5491 14.7837 7.05437 14.7837 6.75204 14.5852C6.44666 14.3867 6.44971 14.066 6.7551 13.8675ZM7.51245 15.37C7.49413 15.37 7.47886 15.373 7.46054 15.373C7.44832 15.373 7.4361 15.373 7.42694 15.3761C7.41167 15.3761 7.39335 15.3792 7.37808 15.3792C7.36587 15.3792 7.3567 15.3792 7.34449 15.3792C7.32922 15.3792 7.317 15.3792 7.30173 15.3792C7.41167 15.3792 7.51856 15.373 7.62544 15.3578C7.61933 15.3578 7.61017 15.3578 7.60407 15.3608C7.58269 15.3639 7.56437 15.3669 7.54299 15.3669C7.53383 15.37 7.52467 15.37 7.51245 15.37ZM7.72011 15.3456C7.71706 15.3456 7.71095 15.3456 7.7079 15.3486C7.68041 15.3517 7.65293 15.3578 7.62544 15.3608C7.73233 15.3486 7.83616 15.3272 7.93693 15.2997C7.92472 15.3028 7.9125 15.3059 7.89723 15.3089C7.88807 15.312 7.87891 15.315 7.86975 15.315C7.85143 15.3181 7.8331 15.3242 7.81783 15.3272C7.80867 15.3303 7.79951 15.3303 7.79035 15.3333C7.76897 15.3364 7.74454 15.3425 7.72011 15.3456ZM7.09407 15.3669C7.16126 15.373 7.22844 15.3792 7.29563 15.3792H7.29257C7.28036 15.3792 7.26814 15.3792 7.25593 15.3792C7.24066 15.3792 7.22234 15.3792 7.20707 15.3792C7.19485 15.3792 7.18569 15.3792 7.17347 15.3792C7.15515 15.3792 7.13377 15.3761 7.11545 15.3761C7.10934 15.3761 7.10629 15.3761 7.10018 15.3761L7.09407 15.3669ZM6.16571 17.0099C6.17487 17.013 6.18098 17.0191 6.19014 17.0221C6.21151 17.0343 6.23289 17.0465 6.25427 17.0557C6.26038 17.0588 6.26954 17.0618 6.27564 17.0679C6.30313 17.0801 6.33367 17.0954 6.36115 17.1076C6.36726 17.1107 6.37031 17.1107 6.37642 17.1137C6.40085 17.1229 6.42528 17.1351 6.44971 17.1443C6.45277 17.1473 6.45887 17.1473 6.46193 17.1504C6.46804 17.1534 6.47414 17.1534 6.48025 17.1565C6.49552 17.1626 6.50774 17.1656 6.52301 17.1718C6.53522 17.1748 6.54744 17.1809 6.55965 17.184C6.57492 17.187 6.58714 17.1931 6.60241 17.1962C6.61462 17.1992 6.62684 17.2023 6.63905 17.2053C6.65432 17.2084 6.66959 17.2145 6.68181 17.2176C6.69402 17.2206 6.70624 17.2237 6.71845 17.2267C6.73372 17.2298 6.74899 17.2328 6.76426 17.2359C6.77342 17.2389 6.78258 17.2389 6.78869 17.242C6.79174 17.242 6.7948 17.242 6.79785 17.245C6.83144 17.2512 6.86198 17.2573 6.89557 17.2634C6.90168 17.2634 6.90474 17.2634 6.91084 17.2664C6.93833 17.2695 6.96887 17.2756 6.99635 17.2786C6.9994 17.2786 7.00551 17.2786 7.00857 17.2817C7.01467 17.2817 7.02078 17.2817 7.02689 17.2847C7.04521 17.2878 7.06354 17.2878 7.08186 17.2909C7.09407 17.2909 7.10629 17.2939 7.11545 17.2939C7.13377 17.2939 7.15515 17.297 7.17347 17.297C7.18264 17.297 7.18874 17.297 7.1979 17.297C7.20096 17.297 7.20401 17.297 7.20707 17.297C7.22234 17.297 7.24066 17.297 7.25593 17.297C7.26814 17.297 7.28036 17.297 7.29257 17.297C7.3109 17.297 7.32922 17.297 7.34754 17.297C7.3567 17.297 7.36587 17.297 7.37503 17.297H7.37808C7.39335 17.297 7.41167 17.297 7.42694 17.2939C7.43916 17.2939 7.44832 17.2939 7.46054 17.2909C7.47886 17.2909 7.49718 17.2878 7.51245 17.2878C7.52161 17.2878 7.53077 17.2878 7.53994 17.2847C7.53994 17.2847 7.53994 17.2847 7.54299 17.2847C7.56437 17.2817 7.58574 17.2817 7.60407 17.2786C7.61017 17.2786 7.61933 17.2786 7.62544 17.2756C7.65293 17.2725 7.68041 17.2695 7.7079 17.2634C7.71095 17.2634 7.71706 17.2634 7.72011 17.2603C7.74454 17.2573 7.76897 17.2512 7.79035 17.2481C7.79951 17.245 7.80867 17.245 7.81783 17.242C7.83616 17.2389 7.85448 17.2359 7.86975 17.2298C7.8728 17.2298 7.8728 17.2298 7.87586 17.2298C7.88197 17.2267 7.89113 17.2267 7.89723 17.2237C7.91556 17.2176 7.93693 17.2145 7.95526 17.2084C7.96442 17.2053 7.97663 17.2023 7.9858 17.1992C8.00412 17.1931 8.01939 17.1901 8.03771 17.184C8.04382 17.1809 8.04687 17.1809 8.05298 17.1779C8.05603 17.1779 8.06214 17.1748 8.0652 17.1718C8.09268 17.1626 8.12016 17.1534 8.14765 17.1443C8.15376 17.1412 8.15681 17.1412 8.16292 17.1382C8.19346 17.1259 8.224 17.1137 8.25453 17.1015C8.25759 17.1015 8.26064 17.0985 8.26369 17.0985C8.26675 17.0985 8.2698 17.0954 8.27286 17.0924C8.31256 17.074 8.3492 17.0557 8.38585 17.0374C8.3889 17.0343 8.39196 17.0343 8.39806 17.0313C8.4286 17.016 8.45914 16.9977 8.48663 16.9794V17.0099C8.48663 17.2053 8.37058 17.3977 8.13543 17.5474C8.111 17.5626 8.08352 17.5779 8.05603 17.5932C8.05298 17.5932 8.04993 17.5962 8.04993 17.5962C8.0255 17.6085 7.99801 17.6207 7.97053 17.6329C7.96747 17.6329 7.96747 17.6359 7.96442 17.6359C7.96136 17.6359 7.96136 17.6359 7.95831 17.639C7.93693 17.6482 7.91556 17.6573 7.89418 17.6634C7.89113 17.6634 7.88807 17.6665 7.88502 17.6665C7.8667 17.6726 7.84837 17.6787 7.83005 17.6848C7.827 17.6848 7.82394 17.6879 7.82089 17.6879C7.81783 17.6879 7.81478 17.6909 7.80867 17.6909C7.79646 17.694 7.78424 17.697 7.77203 17.7001C7.76592 17.7031 7.75676 17.7031 7.75065 17.7062C7.73843 17.7092 7.72317 17.7123 7.71095 17.7153C7.70484 17.7153 7.70179 17.7184 7.69568 17.7184H7.69263C7.68041 17.7214 7.6682 17.7245 7.65598 17.7276C7.64987 17.7276 7.64377 17.7306 7.6346 17.7306C7.61933 17.7337 7.60101 17.7367 7.58574 17.7398C7.58269 17.7398 7.57963 17.7398 7.57658 17.7398C7.55826 17.7428 7.53994 17.7459 7.51856 17.7489C7.51245 17.7489 7.5094 17.7489 7.50329 17.752C7.48802 17.755 7.4758 17.755 7.46054 17.755C7.45443 17.755 7.44832 17.755 7.43916 17.755C7.42694 17.755 7.41473 17.7581 7.40251 17.7581C7.39335 17.7581 7.38724 17.7581 7.37808 17.7581C7.36587 17.7581 7.3567 17.7581 7.34449 17.7581H7.34144C7.33533 17.7581 7.32922 17.7581 7.32311 17.7581C7.3109 17.7581 7.29868 17.7581 7.28647 17.7581C7.2773 17.7581 7.2712 17.7581 7.26204 17.7581C7.24982 17.7581 7.2376 17.7581 7.22844 17.7581C7.22539 17.7581 7.22539 17.7581 7.22233 17.7581C7.21623 17.7581 7.21012 17.7581 7.20707 17.7581C7.19485 17.7581 7.17958 17.7581 7.16737 17.755C7.1582 17.755 7.1521 17.755 7.14293 17.752C7.13072 17.752 7.11851 17.7489 7.10324 17.7489C7.10018 17.7489 7.09407 17.7489 7.09102 17.7489C7.08797 17.7489 7.08491 17.7489 7.08186 17.7489C7.06354 17.7459 7.04216 17.7428 7.02384 17.7398C7.02078 17.7398 7.01773 17.7398 7.01467 17.7398C6.9933 17.7367 6.96887 17.7337 6.94749 17.7276C6.94444 17.7276 6.94444 17.7276 6.94138 17.7276C6.93527 17.7276 6.92917 17.7245 6.92306 17.7245C6.9139 17.7214 6.90168 17.7214 6.89252 17.7184C6.88336 17.7153 6.8742 17.7153 6.86809 17.7123C6.85893 17.7092 6.84671 17.7062 6.83755 17.7031C6.82839 17.7001 6.82228 17.7001 6.81312 17.697C6.80396 17.694 6.7948 17.6909 6.78258 17.6879C6.77342 17.6848 6.76731 17.6817 6.75815 17.6787C6.74899 17.6756 6.73983 17.6726 6.73067 17.6695C6.72761 17.6695 6.72151 17.6665 6.71845 17.6665C6.7154 17.6665 6.71234 17.6634 6.70929 17.6634C6.69097 17.6573 6.6757 17.6512 6.65737 17.6451C6.65432 17.6451 6.65127 17.642 6.64516 17.642C6.62378 17.6329 6.60546 17.6237 6.58714 17.6146C6.58103 17.6115 6.57797 17.6085 6.57187 17.6085C6.5566 17.6023 6.54133 17.5932 6.52911 17.5871C6.52301 17.584 6.5169 17.581 6.51384 17.5779C6.49552 17.5688 6.4772 17.5565 6.45887 17.5443C6.45277 17.5413 6.44971 17.5382 6.44361 17.5352C6.44055 17.5321 6.43444 17.5291 6.43139 17.526C6.42528 17.5199 6.41612 17.5168 6.41001 17.5107C6.40391 17.5077 6.3978 17.5016 6.39169 17.4955C6.38558 17.4894 6.37948 17.4863 6.37031 17.4802C6.36421 17.4741 6.3581 17.471 6.35199 17.4649C6.34588 17.4588 6.33978 17.4558 6.33367 17.4497C6.32756 17.4435 6.32145 17.4405 6.3184 17.4344C6.31229 17.4283 6.30618 17.4222 6.30008 17.4191C6.29702 17.4161 6.29397 17.4161 6.29397 17.413C6.29091 17.41 6.29091 17.41 6.28786 17.4069C6.2787 17.3977 6.26954 17.3886 6.26038 17.3764C6.25732 17.3733 6.25427 17.3703 6.25121 17.3672C6.239 17.355 6.22984 17.3397 6.22068 17.3275C6.22068 17.3275 6.22068 17.3275 6.22068 17.3244C6.21762 17.3214 6.21762 17.3183 6.21457 17.3153C6.20846 17.3061 6.20235 17.3 6.1993 17.2909C6.19624 17.2847 6.19319 17.2817 6.19014 17.2756C6.18708 17.2664 6.18098 17.2603 6.17792 17.2512C6.17792 17.2481 6.17487 17.2481 6.17487 17.245C6.17181 17.242 6.17181 17.2389 6.17181 17.2359C6.16876 17.2298 6.16571 17.2237 6.16265 17.2176C6.1596 17.2115 6.15654 17.2053 6.15654 17.2023C6.15349 17.1962 6.15044 17.1901 6.15044 17.184C6.15044 17.1809 6.14738 17.1779 6.14738 17.1748C6.14738 17.1718 6.14433 17.1687 6.14433 17.1656C6.14128 17.1595 6.14128 17.1534 6.13822 17.1473C6.13517 17.1412 6.13517 17.1351 6.13211 17.129C6.12906 17.1229 6.12906 17.1168 6.12906 17.1107C6.12906 17.1076 6.12601 17.1046 6.12601 17.1015C6.12601 17.0985 6.12601 17.0954 6.12601 17.0954C6.12601 17.0893 6.12295 17.0832 6.12295 17.0771C6.12295 17.071 6.12295 17.0649 6.1199 17.0588C6.1199 17.0527 6.1199 17.0465 6.1199 17.0404C6.1199 17.0374 6.1199 17.0313 6.1199 17.0282C6.1199 17.0252 6.1199 17.0221 6.1199 17.016V16.9824C6.13517 16.9916 6.15044 17.0007 6.16571 17.0099ZM1.43836 14.6401L2.14074 14.1423H3.92724H3.94251L5.97331 16.6618L5.94583 17.2023L3.72263 14.5302H3.2615H2.21404L2.04913 14.6401L1.7865 14.8172V15.8097L1.43836 16.0021V14.6401ZM9.33254 24.0368L12.7315 21.9877V27.054L9.33254 29.2131V24.0368Z" fill="#9FD369"/>
</svg>
