<svg width="35" height="34" fill="none" xmlns="http://www.w3.org/2000/svg"><path d="M24.362 9.165h1.091a.503.503 0 00.504-.504V2.467A2.468 2.468 0 0023.49 0H2.467A2.47 2.47 0 000 2.467V25.25c0 .726.387 1.398 1.013 1.766l10.985 6.42c1.361.797 3.076-.187 3.076-1.767v-2.803h8.416a2.468 2.468 0 002.467-2.467v-8.635a.503.503 0 00-.504-.503h-1.09a.503.503 0 00-.505.503v8.347c0 .42-.338.758-.758.758h-8.026V9.98c0-.725-.387-1.397-1.013-1.765L3.574 2.09h19.523c.42 0 .758.338.758.758v5.81c0 .28.228.507.507.507zM11.803 27.603c-.408 0-.743-.513-.806-1.181a2.822 2.822 0 01-.012-.228c0-.777.366-1.406.818-1.406.453 0 .819.63.819 1.406 0 .078-.006.153-.012.228-.063.671-.399 1.18-.807 1.18z" fill="#AFAFAF"/><path d="M34.066 12.91L27.83 9.308a.323.323 0 00-.485.279v1.706c0 .17-.138.311-.312.311h-3.826a.55.55 0 00-.551.552v2.063a.55.55 0 00.551.551h3.826c.17 0 .312.138.312.312v1.706c0 .249.27.405.485.282l6.236-3.6a.324.324 0 000-.562z" fill="#AFAFAF"/></svg>