<svg width="35" height="35" fill="none" xmlns="http://www.w3.org/2000/svg"><path fill-rule="evenodd" clip-rule="evenodd" d="M14.702 20.5V5.434c0-.636.516-1.152 1.151-1.152h17.224c.636 0 1.151.516 1.151 1.152v15.31c0 .636-.515 1.152-1.15 1.152h-3.509a3.277 3.277 0 01-6.367 0h-7.106c-.77 0-1.394-.624-1.394-1.394zM25 21.893l.001.003v-.003H25zm-.214-.789c.003.287.08.556.214.789h-.008a1.598 1.598 0 002.795 0h-.015c.116-.201.191-.429.21-.672v-.009a1.598 1.598 0 00-1.595-1.697 1.6 1.6 0 00-1.601 1.59zm.272-13.854l-7.768 4.485a.405.405 0 000 .699l7.768 4.485a.404.404 0 00.606-.35v-2.513h5.126a.686.686 0 00.687-.687V10.8a.686.686 0 00-.687-.687h-5.127V7.6a.405.405 0 00-.605-.35z" fill="#AFAFAF"/><path d="M3.666 14.343v4.964c0 .558.453 1.008 1.007 1.008H7.21a3.365 3.365 0 00-.102.8 3.284 3.284 0 006.566 0c0-.276-.04-.542-.102-.8h.818V6.422H8.202c-3.736 0-4.536 5.417-4.536 7.92zm5.124 6.775a1.6 1.6 0 113.2 0 1.6 1.6 0 01-3.2 0zM5.267 13.57c0-1.757.56-5.558 3.18-5.558h3.784v3.259c-2.94.431-5.516 3.633-6.562 3.633h-.006a.408.408 0 01-.396-.41v-.924z" fill="#AFAFAF"/><path d="M2.446 24.449V3.142a.7.7 0 01.699-.699h2.971c.675 0 1.223-.548 1.223-1.223C7.34.546 6.788 0 6.113 0H3.142A3.145 3.145 0 000 3.142v27.36c0 2.06 1.67 3.727 3.727 3.727h26.772c2.06 0 3.727-1.67 3.727-3.727v-6.053H2.446z" fill="#AFAFAF"/></svg>