<svg width="35" height="35" viewBox="0 0 35 35" fill="none" xmlns="http://www.w3.org/2000/svg">
<path fill-rule="evenodd" clip-rule="evenodd" d="M14.7021 20.5006V5.4325C14.7021 4.79691 15.2178 4.28125 15.8534 4.28125H33.0771C33.7127 4.28125 34.2284 4.79691 34.2284 5.4325V20.7435C34.2284 21.3791 33.7127 21.8947 33.0771 21.8947H29.5694C29.2216 23.3308 27.9295 24.3981 26.3855 24.3981C24.8415 24.3981 23.5524 23.3308 23.2016 21.8947H16.0962C15.3257 21.8947 14.7021 21.2711 14.7021 20.5006ZM24.9987 21.8917C24.9993 21.8927 24.9998 21.8937 25.0004 21.8947V21.8917H24.9987ZM24.7846 21.1032C24.7875 21.3898 24.8648 21.6586 24.9987 21.8917H24.9914C25.2642 22.3804 25.7859 22.7132 26.3885 22.7132C26.9881 22.7132 27.5128 22.3834 27.7856 21.8917H27.7706C27.8875 21.6909 27.9625 21.463 27.9805 21.2202V21.2112C27.9865 21.1482 27.9835 21.0823 27.9805 21.0193C27.9325 20.1799 27.2369 19.5143 26.3855 19.5143C25.5041 19.5143 24.7905 20.2248 24.7846 21.1032ZM25.0569 7.24932L17.2889 11.7344C17.0221 11.8903 17.0221 12.28 17.2889 12.4329L25.0569 16.918C25.3267 17.0739 25.6625 16.879 25.6625 16.5672V14.0549H30.7891C31.1669 14.0549 31.4757 13.7491 31.4757 13.3683V10.799C31.4757 10.4212 31.1699 10.1124 30.7891 10.1124H25.6625V7.60009C25.6625 7.36324 25.4676 7.19535 25.2577 7.19535C25.1918 7.19535 25.1228 7.21034 25.0569 7.24932Z" fill="#9ED369"/>
<path d="M3.66602 14.3427V19.3075C3.66602 19.8651 4.11872 20.3148 4.67336 20.3148H7.2097C7.14674 20.5726 7.10776 20.8395 7.10776 21.1153C7.10776 22.9261 8.5768 24.3981 10.3906 24.3981C12.2044 24.3981 13.6735 22.9291 13.6735 21.1153C13.6735 20.8395 13.6345 20.5726 13.5715 20.3148H14.39V6.42189H8.20205C4.46649 6.42189 3.66602 11.8393 3.66602 14.3427ZM8.78966 21.1183C8.78966 20.2339 9.5062 19.5173 10.3906 19.5173C11.275 19.5173 11.9916 20.2339 11.9916 21.1183C11.9916 22.0027 11.275 22.7192 10.3906 22.7192C9.5062 22.7192 8.78966 22.0027 8.78966 21.1183ZM5.26697 13.5692C5.26697 11.8124 5.8276 8.01085 8.44789 8.01085H12.2314V11.2697C9.29034 11.7014 6.71502 14.9033 5.66871 14.9033H5.66271C5.44085 14.9003 5.26697 14.7115 5.26697 14.4926V13.5692Z" fill="#9ED369"/>
<path d="M2.4464 24.449V3.14194C2.4464 2.7582 2.7582 2.4434 3.14494 2.4434H6.116C6.79056 2.4434 7.3392 1.89476 7.3392 1.2202C7.3392 0.545643 6.78756 0 6.113 0H3.14194C1.40908 0 0 1.40908 0 3.14194V24.449V30.502C0 32.5617 1.66991 34.2286 3.72656 34.2286H30.4991C32.5587 34.2286 34.2256 32.5587 34.2256 30.502V24.449H2.4464Z" fill="#9ED369"/>
</svg>
