<svg width="36" height="36" viewBox="0 0 36 36" fill="none" xmlns="http://www.w3.org/2000/svg">
<path d="M20.2232 33.9017V33.5931C20.2232 32.109 21.1365 30.8037 22.5003 30.2206C22.6577 30.1527 22.8151 30.0817 22.9694 30.0077C24.3425 29.3535 25.9809 29.6682 27.0547 30.742L27.2892 30.9765C27.8076 31.4949 28.6469 31.4949 29.1653 30.9765L30.9796 29.1622C31.498 28.6438 31.498 27.8045 30.9796 27.2861L30.489 26.7955C29.4492 25.7557 29.156 24.1974 29.7022 22.8336C29.7299 22.7688 29.7546 22.7009 29.7793 22.633C30.3255 21.1982 31.6677 20.2232 33.2044 20.2232H33.9048C34.6361 20.2232 35.2316 19.6276 35.2316 18.8963V16.3322C35.2316 15.5978 34.6361 15.0054 33.9048 15.0054H33.0346C31.5381 15.0054 30.2206 14.0797 29.6497 12.6942C29.6374 12.6665 29.6281 12.6418 29.6158 12.614C29.0326 11.2224 29.298 9.62096 30.3656 8.55642L30.9796 7.94239C31.498 7.424 31.498 6.58471 30.9796 6.06633L29.1653 4.25198C28.6469 3.7336 27.8076 3.7336 27.2892 4.25198L26.7585 4.78271C25.6724 5.86885 24.0401 6.12187 22.6361 5.50166C22.5837 5.47697 22.5281 5.45538 22.4726 5.43069C21.118 4.85368 20.2262 3.54229 20.2262 2.07045V1.32682C20.2262 0.592439 19.6307 0 18.8994 0H16.3353C15.6009 0 15.0085 0.595525 15.0085 1.32682V1.72795C15.0085 3.24299 14.0797 4.62226 12.6541 5.13139C12.4844 5.1931 12.3178 5.25481 12.1512 5.32269C10.8151 5.86268 9.28771 5.59423 8.26946 4.57597L7.94547 4.25198C7.42709 3.7336 6.5878 3.7336 6.06941 4.25198L4.23964 6.08176C3.73051 6.59088 3.73051 7.41783 4.23964 7.93004C5.32269 9.0131 5.65903 10.6701 4.9987 12.0555C4.89071 12.2839 4.78888 12.5153 4.69323 12.7498C4.1409 14.1044 2.84803 15.0054 1.38544 15.0054H1.33607C0.592439 15.0054 0 15.6009 0 16.3322V19.066C0 19.7048 0.518384 20.2232 1.15711 20.2232C2.69375 20.2232 4.03599 21.1982 4.58215 22.633C4.66546 22.8552 4.75494 23.0712 4.85059 23.2872C5.4708 24.6911 5.2147 26.3234 4.13165 27.4096C3.68114 27.8601 3.68114 28.5914 4.13165 29.0419L6.10644 31.0166C6.60323 31.5134 7.41166 31.5134 7.90844 31.0166C8.97298 29.9521 10.5744 29.6837 11.9629 30.2668C12.1604 30.3502 12.3641 30.4304 12.5677 30.5044C14.0149 31.0321 15.0085 32.3682 15.0085 33.9079C15.0085 34.6392 15.6009 35.2316 16.3322 35.2316H18.8994C19.6307 35.2285 20.2232 34.6361 20.2232 33.9017ZM17.1807 26.0951C12.6171 26.0951 8.91744 22.3954 8.91744 17.8318C8.91744 13.2682 12.6171 9.56851 17.1807 9.56851C21.7444 9.56851 25.444 13.2682 25.444 17.8318C25.444 22.3954 21.7444 26.0951 17.1807 26.0951Z" fill="#A1D46A"/>
<path d="M17.1466 22.9231C19.9926 22.9231 22.2996 20.616 22.2996 17.7701C22.2996 14.9242 19.9926 12.6171 17.1466 12.6171C14.3007 12.6171 11.9937 14.9242 11.9937 17.7701C11.9937 20.616 14.3007 22.9231 17.1466 22.9231Z" fill="#A1D46A"/>
</svg>
