<svg width="36" height="36" fill="none" xmlns="http://www.w3.org/2000/svg"><path d="M20.223 33.902v-.309c0-1.484.914-2.79 2.277-3.372.158-.068.315-.14.47-.213 1.373-.654 3.01-.34 4.085.734l.234.235a1.326 1.326 0 001.876 0l1.815-1.815a1.326 1.326 0 000-1.876l-.491-.49c-1.04-1.04-1.333-2.599-.787-3.962.028-.065.053-.133.077-.201.547-1.435 1.889-2.41 3.425-2.41h.7c.732 0 1.328-.595 1.328-1.327v-2.564c0-.734-.596-1.327-1.327-1.327h-.87c-1.497 0-2.814-.925-3.385-2.31l-.034-.081c-.583-1.392-.318-2.993.75-4.058l.614-.614a1.326 1.326 0 000-1.876l-1.815-1.814a1.326 1.326 0 00-1.876 0l-.53.53c-1.087 1.087-2.719 1.34-4.123.72-.052-.025-.108-.047-.163-.071a3.659 3.659 0 01-2.247-3.36v-.744C20.226.592 19.631 0 18.9 0h-2.564c-.734 0-1.327.596-1.327 1.327v.401c0 1.515-.928 2.894-2.354 3.403-.17.062-.336.124-.503.192-1.336.54-2.863.271-3.882-.747l-.324-.324a1.326 1.326 0 00-1.876 0l-1.83 1.83a1.31 1.31 0 000 1.848c1.084 1.083 1.42 2.74.76 4.126-.108.228-.21.46-.306.694-.552 1.354-1.845 2.255-3.308 2.255h-.049c-.744 0-1.336.596-1.336 1.327v2.734c0 .639.518 1.157 1.157 1.157 1.537 0 2.879.975 3.425 2.41.083.222.173.438.269.654.62 1.404.364 3.036-.72 4.123-.45.45-.45 1.181 0 1.632l1.975 1.975a1.276 1.276 0 001.802 0c1.065-1.065 2.666-1.333 4.055-.75.197.083.401.163.605.237 1.447.528 2.44 1.864 2.44 3.404 0 .731.593 1.324 1.324 1.324H18.9a1.329 1.329 0 001.324-1.33zm-3.042-7.807a8.263 8.263 0 110-16.527 8.263 8.263 0 010 16.527z" fill="#AFAFAF"/><path d="M17.147 22.923a5.153 5.153 0 100-10.306 5.153 5.153 0 000 10.306z" fill="#AFAFAF"/></svg>