<svg width="35" height="35" viewBox="0 0 35 35" fill="none" xmlns="http://www.w3.org/2000/svg">
<path d="M28.0825 27.9178L30.9007 30.5171C31.5243 29.8395 31.908 28.9341 31.908 27.9417C31.908 26.8505 31.4463 25.8671 30.7118 25.1746L28.0825 27.9178Z" fill="#A3D46B"/>
<path d="M27.8847 7.35115H33.2692L27.0962 1.04028V6.57766C27.0962 7.00338 27.45 7.35115 27.8847 7.35115Z" fill="#A3D46B"/>
<path d="M27.9747 9.35088C26.4457 9.35088 25.2015 8.1067 25.2015 6.5777V0H10.2413C8.41849 0 6.94046 1.47803 6.94046 3.30084V5.74724H3.24088C1.45405 5.75024 0 7.20129 0 8.98812V30.9787C0 32.7656 1.45405 34.2166 3.24088 34.2166H10.1364C10.1723 34.2166 10.2053 34.2286 10.2443 34.2286H30.9308C32.7536 34.2286 34.2316 32.7506 34.2316 30.9278V9.35088H27.9747ZM30.8678 11.8213C31.1586 11.8213 31.3985 12.0581 31.3985 12.3519C31.3985 12.6457 31.1616 12.8826 30.8678 12.8826H10.9308C10.637 12.8826 10.4002 12.6457 10.4002 12.3519C10.4002 12.0581 10.637 11.8213 10.9308 11.8213H30.8678ZM10.8799 29.6416H21.349C21.6428 29.6416 21.8797 29.8785 21.8797 30.1723C21.8797 30.4631 21.6428 30.7029 21.349 30.7029H10.8799C10.5861 30.7029 10.3492 30.4661 10.3492 30.1723C10.3522 29.8785 10.5891 29.6416 10.8799 29.6416ZM21.349 26.8175H11.8213C11.5305 26.8175 11.2906 26.5806 11.2906 26.2868C11.2906 25.993 11.5275 25.7562 11.8213 25.7562H21.349C21.6428 25.7562 21.8797 25.993 21.8797 26.2868C21.8797 26.5806 21.6428 26.8175 21.349 26.8175ZM10.8799 22.2305C10.5861 22.2305 10.3492 21.9936 10.3492 21.6998C10.3492 21.406 10.5861 21.1692 10.8799 21.1692H30.8168C31.1076 21.1692 31.3475 21.406 31.3475 21.6998C31.3475 21.9906 31.1106 22.2305 30.8168 22.2305H10.8799ZM11.3416 17.1698C11.3416 16.876 11.5784 16.6391 11.8722 16.6391H29.6926C29.9834 16.6391 30.2232 16.876 30.2232 17.1698C30.2232 17.4606 29.9864 17.7004 29.6926 17.7004H11.8722C11.5784 17.6974 11.3416 17.4606 11.3416 17.1698ZM1.2232 30.9787V8.98812C1.2232 7.87585 2.12861 6.97044 3.24088 6.97044H6.94046V11.6114H4.8898C4.55102 11.6114 4.2782 11.8842 4.2782 12.223C4.2782 12.5618 4.55102 12.8346 4.8898 12.8346H6.94046V15.8896H5.5014C5.16262 15.8896 4.8898 16.1624 4.8898 16.5012C4.8898 16.84 5.16262 17.1128 5.5014 17.1128H6.94046V20.1678H4.8898C4.55102 20.1678 4.2782 20.4406 4.2782 20.7794C4.2782 21.1182 4.55102 21.391 4.8898 21.391H6.94046V24.446H5.5014C5.16262 24.446 4.8898 24.7188 4.8898 25.0576C4.8898 25.3964 5.16262 25.6692 5.5014 25.6692H6.94046V28.1156H4.8898C4.55102 28.1156 4.2782 28.3884 4.2782 28.7272C4.2782 29.066 4.55102 29.3388 4.8898 29.3388H6.94046V30.9278C6.94046 31.7163 7.22827 32.4298 7.68697 32.9964H3.24088C2.12861 32.9964 1.2232 32.091 1.2232 30.9787ZM27.6119 32.7596C24.9647 32.7596 22.8181 30.613 22.8181 27.9657C22.8181 25.3184 24.9647 23.1718 27.6119 23.1718C30.2592 23.1718 32.4058 25.3184 32.4058 27.9657C32.4058 30.613 30.2592 32.7596 27.6119 32.7596Z" fill="#A3D46B"/>
</svg>
