<svg width="33" height="33" viewBox="0 0 33 33" fill="none" xmlns="http://www.w3.org/2000/svg">
<path d="M21.1551 21.0086C21.0601 21.3483 20.9622 21.734 20.9104 22.0708C20.9104 22.0708 20.7838 21.7974 20.6053 21.5124C20.6254 21.4231 20.8845 20.1824 20.1159 19.0108C19.3214 17.7931 17.7842 17.6089 17.7842 17.6089C18.6823 18.5301 17.9137 20.1882 18.8608 21C19.4711 21.521 20.0152 21.5843 20.3289 21.5642C20.8903 22.2867 20.4211 23.8585 20.3548 23.9449C20.4268 23.9189 21.0025 23.729 21.1177 22.6955C21.1724 22.209 21.2587 21.6909 21.3624 21.2389C21.5927 21.3224 22.0216 21.3943 22.5743 21.1209C23.4235 20.7035 23.7229 18.651 24.0683 18.0522C24.4138 17.4534 24.6642 17.1368 24.6642 17.1368C24.6642 17.1368 23.4494 17.2663 22.9169 17.5283C21.1148 18.412 21.1177 20.4559 21.1551 21.0086Z" fill="#D1D1D1"/>
<path d="M32.1607 21.5469V22.9344C32.1607 22.969 32.1578 23.0035 32.155 23.0381L32.1694 10.8267C32.4716 10.4755 32.6127 10.1732 32.6846 10.012C32.7768 9.80765 33.1942 8.72814 32.3162 7.59394C32.2644 7.52773 32.2125 7.4644 32.1607 7.40395V8.6389C32.1838 10.9764 27.2958 12.8734 21.2534 12.8706C18.2308 12.8706 15.4903 12.3985 13.504 11.6299C11.5177 10.8641 10.2828 9.80477 10.2741 8.63602V7.37228C10.2597 7.38956 10.2425 7.40683 10.2281 7.4241C9.97762 7.71485 9.66096 8.19271 9.58036 8.81162C9.55157 9.03904 9.52279 9.63205 9.87111 10.2452C9.98338 10.4438 10.1244 10.6338 10.2828 10.8152L10.2712 21.5124C10.2569 21.5296 10.2425 21.5469 10.2281 21.5671C9.97762 21.8923 9.66096 22.4307 9.58036 23.1273C9.55157 23.3806 9.52279 24.0485 9.87111 24.7365C10.1359 25.2633 10.5303 25.7383 11.0399 26.1499C11.8171 26.7803 12.5224 27.1171 13.1787 27.4108C13.7372 27.6612 15.8069 28.4989 18.9706 28.7695C21.8723 29.0171 24.2184 28.7494 25.6751 28.4788C27.0453 28.2254 27.9319 27.9232 28.0298 27.8915C28.4184 27.7562 28.9366 27.572 29.308 27.4108C29.8664 27.1661 30.1226 27.0193 30.4767 26.8149C30.7818 26.6422 31.3748 26.2622 31.9276 25.6749C32.4112 25.1625 32.5983 24.6933 32.6904 24.4688C32.7825 24.2385 33.1999 23.0265 32.3219 21.7513C32.2672 21.6851 32.2154 21.616 32.1607 21.5469ZM10.2828 23.0928C10.277 23.0409 10.2741 22.9862 10.2712 22.9344V22.1716C10.2741 22.1658 10.277 22.1629 10.2828 22.1572V23.0928ZM26.009 24.7653C25.5455 24.9207 25.013 25.0503 24.4257 25.1539H24.4171C24.3278 25.1683 24.2386 25.1856 24.1465 25.1999C24.135 25.2028 24.1234 25.2028 24.1148 25.2057C24.0313 25.2172 23.945 25.2316 23.8615 25.2431C23.8442 25.246 23.8241 25.2489 23.8039 25.2518C23.7262 25.2633 23.6456 25.2719 23.565 25.2834C23.5391 25.2863 23.5132 25.2892 23.4873 25.2921C23.4124 25.3007 23.3404 25.3093 23.2627 25.318C23.2282 25.3209 23.1936 25.3237 23.1562 25.3266C23.0871 25.3324 23.0209 25.341 22.9518 25.3468C22.9086 25.3496 22.8683 25.3525 22.8252 25.3554C22.7618 25.3612 22.6985 25.364 22.6352 25.3698C22.5862 25.3727 22.5344 25.3755 22.4855 25.3784C22.4279 25.3813 22.3703 25.3842 22.3128 25.3899C22.2552 25.3928 22.1976 25.3957 22.14 25.3957C22.0882 25.3986 22.0364 25.4015 21.9846 25.4015C21.9184 25.4043 21.8522 25.4043 21.786 25.4072C21.7399 25.4072 21.6967 25.4101 21.6507 25.4101C21.5528 25.413 21.4549 25.413 21.3542 25.413C21.3398 25.413 21.3254 25.413 21.311 25.413C20.1019 25.413 18.9677 25.3065 17.989 25.1193C17.8364 25.0906 17.6838 25.0589 17.5399 25.0272C17.3384 24.9812 17.1455 24.9322 16.9613 24.8804C16.8404 24.8459 16.7224 24.8113 16.6101 24.7739C16.541 24.7509 16.4748 24.7278 16.4057 24.7019V15.1591C16.4086 15.1591 16.4086 15.1591 16.4115 15.162C16.7512 15.2771 18.0063 15.6629 19.9235 15.7867C21.6823 15.9018 23.1073 15.778 23.991 15.6542C24.8201 15.5391 25.3613 15.398 25.4189 15.3836C25.5945 15.3376 25.8132 15.28 26.0061 15.2224V24.7653H26.009Z" fill="#D1D1D1"/>
<path d="M30.4737 27.4713C30.1196 27.6728 29.8634 27.8196 29.305 28.0643C28.9336 28.2284 28.4183 28.4097 28.0268 28.545C27.9289 28.5796 27.0394 28.8818 25.6721 29.1323C24.2154 29.4 21.8693 29.6706 18.9676 29.423C15.8039 29.1524 13.7342 28.3147 13.1757 28.0643C12.5194 27.7707 11.8141 27.431 11.0369 26.8034C10.7346 26.5587 10.4726 26.2881 10.2539 26.0031L10.251 28.1132C10.2596 29.4259 11.4917 30.6148 13.4809 31.4755C15.47 32.3362 18.2076 32.8688 21.2303 32.8688C27.2726 32.8688 32.1606 30.7386 32.1376 28.1132L32.1405 26.0751C32.0742 26.1586 32.0023 26.245 31.9217 26.3313C31.3718 26.9157 30.7788 27.2957 30.4737 27.4713Z" fill="#D1D1D1"/>
<path d="M13.5038 10.4352C15.493 11.296 18.2306 11.8285 21.2532 11.8285C27.2956 11.8285 32.1836 9.69829 32.1605 7.07293V5.68541L32.1634 5.68829V4.24895C32.1634 4.21728 32.1576 4.1885 32.1576 4.15683C32.1605 4.1885 32.1634 4.21728 32.1634 4.24895C32.1864 6.8743 27.2984 9.00453 21.2561 9.00453C18.2335 9.00453 15.493 8.47197 13.5067 7.61125C11.5204 6.75052 10.2854 5.56163 10.2768 4.24895L10.2739 7.09596C10.2998 8.40288 11.529 9.58026 13.5038 10.4352Z" fill="#D1D1D1"/>
<path d="M13.8433 7.17655C15.8152 8.03152 18.4463 8.50074 21.2559 8.50074H21.2617C24.9809 8.50074 28.421 7.64865 30.2403 6.27264C31.0665 5.65085 31.4983 4.95133 31.4925 4.25181C31.4839 3.16943 30.4562 2.12734 28.5994 1.32419C26.6247 0.469225 23.9935 0 21.1811 0C17.4618 0 14.0218 0.852089 12.2025 2.2281C11.3792 2.84989 10.9445 3.54941 10.9503 4.24893C10.956 5.33131 11.9866 6.37052 13.8433 7.17655ZM25.3091 1.57176C26.1324 1.57176 26.8003 1.78478 26.8003 2.04674C26.8003 2.3087 26.1324 2.52172 25.3091 2.52172C24.4858 2.52172 23.8179 2.3087 23.8179 2.04674C23.8151 1.78478 24.4829 1.57176 25.3091 1.57176Z" fill="#D1D1D1"/>
<path d="M12.9107 17.796V26.9962L7.04395 30.5198V18.7805L12.9107 17.796Z" fill="#D1D1D1"/>
<path d="M11.0339 23.0784C10.3632 23.7981 10.3632 24.3767 10.3776 24.5264C10.343 24.6473 10.3056 24.7826 10.2854 24.8919C10.2854 24.8919 10.2365 24.8459 10.1703 24.8142C10.1789 24.7854 10.2739 24.3623 9.98894 24.2299C9.69244 24.0917 9.1167 24.44 9.1167 24.44C9.4535 24.4688 9.16564 25.1424 9.51971 25.1251C9.74713 25.1136 9.95152 24.9898 10.0695 24.9035C10.2797 24.9639 10.1041 25.531 10.0782 25.5742C10.1041 25.5483 10.32 25.3439 10.3632 25.0186C10.3833 24.866 10.415 24.6962 10.4553 24.5408C10.5416 24.5033 10.7029 24.4141 10.9101 24.1924C11.2268 23.8527 11.339 23.1907 11.4686 22.9287C11.5981 22.6696 11.6902 22.5142 11.6902 22.5142C11.6902 22.5142 11.2354 22.8654 11.0339 23.0784Z" fill="white"/>
<path d="M7.36078 22.4163L12.9138 18.9388V17.0159L12.5165 15.8471L8.41726 13.0922C8.33953 12.9483 8.21575 12.813 8.03727 12.6979C7.40684 12.2862 6.37628 12.2862 5.74297 12.6979C5.55009 12.8217 5.41767 12.9713 5.34283 13.1297L4.74118 12.5223H2.81823L1.25798 13.6277V14.7446L0 15.47V27.549C0.503769 27.7534 0.578615 28.4039 0.578615 28.4039L7.26003 32.7968L7.8847 32.4139L12.9109 29.2215V26.0031L7.36078 29.4201L1.07375 25.341V25.1222L7.36078 29.1783L12.9138 25.7009V19.2382L7.36078 22.6581L1.07375 18.579V18.3602L7.36078 22.4163ZM7.71774 14.3445C7.71198 14.3474 7.70622 14.3502 7.70047 14.3531C7.69471 14.356 7.69183 14.356 7.68607 14.3589C7.66017 14.3675 7.63426 14.3761 7.60835 14.3848C7.59971 14.3877 7.59108 14.3905 7.57956 14.3934C7.56229 14.3992 7.5479 14.402 7.53062 14.4078C7.52199 14.4107 7.51047 14.4136 7.50184 14.4164C7.49896 14.4164 7.49608 14.4164 7.4932 14.4193C7.57093 14.3992 7.64289 14.3733 7.71486 14.3445C7.71774 14.3445 7.71774 14.3445 7.71774 14.3445ZM6.36764 13.0721C6.65551 12.885 7.12185 12.885 7.40684 13.0721C7.69183 13.2592 7.69183 13.5615 7.40396 13.7486C7.1161 13.9357 6.64975 13.9357 6.36476 13.7486C6.07689 13.5615 6.07977 13.2592 6.36764 13.0721ZM7.08155 14.4884C7.06428 14.4884 7.04989 14.4913 7.03261 14.4913C7.0211 14.4913 7.00958 14.4913 7.00095 14.4942C6.98655 14.4942 6.96928 14.497 6.95489 14.497C6.94337 14.497 6.93474 14.497 6.92322 14.497C6.90883 14.497 6.89732 14.497 6.88292 14.497C6.98655 14.497 7.08731 14.4913 7.18806 14.4769C7.1823 14.4769 7.17367 14.4769 7.16791 14.4798C7.14776 14.4826 7.13049 14.4855 7.11034 14.4855C7.1017 14.4884 7.09307 14.4884 7.08155 14.4884ZM7.2773 14.4654C7.27442 14.4654 7.26867 14.4654 7.26579 14.4683C7.23988 14.4711 7.21397 14.4769 7.18806 14.4798C7.28882 14.4683 7.38669 14.4481 7.48169 14.4222C7.47017 14.4251 7.45866 14.428 7.44426 14.4308C7.43563 14.4337 7.42699 14.4366 7.41836 14.4366C7.40108 14.4395 7.38381 14.4452 7.36942 14.4481C7.36078 14.451 7.35215 14.451 7.34351 14.4539C7.32336 14.4567 7.30033 14.4625 7.2773 14.4654ZM6.68717 14.4855C6.7505 14.4913 6.81383 14.497 6.87716 14.497H6.87429C6.86277 14.497 6.85126 14.497 6.83974 14.497C6.82535 14.497 6.80808 14.497 6.79368 14.497C6.78217 14.497 6.77353 14.497 6.76202 14.497C6.74475 14.497 6.72459 14.4942 6.70732 14.4942C6.70157 14.4942 6.69869 14.4942 6.69293 14.4942L6.68717 14.4855ZM5.81205 16.0343C5.82069 16.0371 5.82645 16.0429 5.83508 16.0458C5.85523 16.0573 5.87538 16.0688 5.89553 16.0774C5.90129 16.0803 5.90993 16.0832 5.91569 16.089C5.94159 16.1005 5.97038 16.1149 5.99629 16.1264C6.00205 16.1293 6.00492 16.1293 6.01068 16.1321C6.03371 16.1408 6.05674 16.1523 6.07977 16.1609C6.08265 16.1638 6.08841 16.1638 6.09129 16.1667C6.09704 16.1696 6.1028 16.1696 6.10856 16.1724C6.12295 16.1782 6.13447 16.1811 6.14886 16.1868C6.16037 16.1897 6.17189 16.1955 6.1834 16.1983C6.1978 16.2012 6.20931 16.207 6.2237 16.2099C6.23522 16.2127 6.24673 16.2156 6.25825 16.2185C6.27264 16.2214 6.28704 16.2271 6.29855 16.23C6.31006 16.2329 6.32158 16.2358 6.33309 16.2386C6.34749 16.2415 6.36188 16.2444 6.37627 16.2473C6.38491 16.2502 6.39355 16.2502 6.3993 16.253C6.40218 16.253 6.40506 16.253 6.40794 16.2559C6.43961 16.2617 6.46839 16.2674 6.50006 16.2732C6.50582 16.2732 6.50869 16.2732 6.51445 16.2761C6.54036 16.2789 6.56915 16.2847 6.59505 16.2876C6.59793 16.2876 6.60369 16.2876 6.60657 16.2905C6.61233 16.2905 6.61808 16.2905 6.62384 16.2933C6.64111 16.2962 6.65839 16.2962 6.67566 16.2991C6.68717 16.2991 6.69869 16.302 6.70732 16.302C6.72459 16.302 6.74475 16.3049 6.76202 16.3049C6.77065 16.3049 6.77641 16.3049 6.78505 16.3049C6.78793 16.3049 6.7908 16.3049 6.79368 16.3049C6.80808 16.3049 6.82535 16.3049 6.83974 16.3049C6.85126 16.3049 6.86277 16.3049 6.87429 16.3049C6.89156 16.3049 6.90883 16.3049 6.9261 16.3049C6.93474 16.3049 6.94337 16.3049 6.95201 16.3049H6.95489C6.96928 16.3049 6.98655 16.3049 7.00095 16.302C7.01246 16.302 7.0211 16.302 7.03261 16.2991C7.04989 16.2991 7.06716 16.2962 7.08155 16.2962C7.09019 16.2962 7.09882 16.2962 7.10746 16.2933C7.10746 16.2933 7.10746 16.2933 7.11034 16.2933C7.13049 16.2905 7.15064 16.2905 7.16791 16.2876C7.17367 16.2876 7.1823 16.2876 7.18806 16.2847C7.21397 16.2818 7.23988 16.2789 7.26579 16.2732C7.26867 16.2732 7.27442 16.2732 7.2773 16.2703C7.30033 16.2674 7.32336 16.2617 7.34351 16.2588C7.35215 16.2559 7.36078 16.2559 7.36942 16.253C7.38669 16.2502 7.40396 16.2473 7.41836 16.2415C7.42124 16.2415 7.42124 16.2415 7.42411 16.2415C7.42987 16.2386 7.43851 16.2386 7.44426 16.2358C7.46154 16.23 7.48169 16.2271 7.49896 16.2214C7.5076 16.2185 7.51911 16.2156 7.52775 16.2127C7.54502 16.207 7.55941 16.2041 7.57668 16.1983C7.58244 16.1955 7.58532 16.1955 7.59108 16.1926C7.59396 16.1926 7.59971 16.1897 7.60259 16.1868C7.6285 16.1782 7.65441 16.1696 7.68032 16.1609C7.68607 16.158 7.68895 16.158 7.69471 16.1552C7.7235 16.1436 7.75228 16.1321 7.78107 16.1206C7.78395 16.1206 7.78683 16.1177 7.78971 16.1177C7.79258 16.1177 7.79546 16.1149 7.79834 16.112C7.83576 16.0947 7.87031 16.0774 7.90485 16.0602C7.90773 16.0573 7.91061 16.0573 7.91637 16.0544C7.94515 16.04 7.97394 16.0227 7.99985 16.0055V16.0343C7.99985 16.2185 7.89046 16.3998 7.6688 16.5409C7.64577 16.5553 7.61986 16.5697 7.59396 16.5841C7.59108 16.5841 7.5882 16.587 7.5882 16.587C7.56517 16.5985 7.53926 16.61 7.51335 16.6215C7.51047 16.6215 7.51047 16.6244 7.5076 16.6244C7.50472 16.6244 7.50472 16.6244 7.50184 16.6273C7.48169 16.6359 7.46154 16.6445 7.44139 16.6503C7.43851 16.6503 7.43563 16.6532 7.43275 16.6532C7.41548 16.6589 7.39821 16.6647 7.38093 16.6704C7.37806 16.6704 7.37518 16.6733 7.3723 16.6733C7.36942 16.6733 7.36654 16.6762 7.36078 16.6762C7.34927 16.6791 7.33775 16.682 7.32624 16.6848C7.32048 16.6877 7.31185 16.6877 7.30609 16.6906C7.29457 16.6935 7.28018 16.6964 7.26867 16.6992C7.26291 16.6992 7.26003 16.7021 7.25427 16.7021H7.25139C7.23988 16.705 7.22836 16.7079 7.21685 16.7107C7.21109 16.7107 7.20533 16.7136 7.1967 16.7136C7.1823 16.7165 7.16503 16.7194 7.15064 16.7223C7.14776 16.7223 7.14488 16.7223 7.142 16.7223C7.12473 16.7251 7.10746 16.728 7.08731 16.7309C7.08155 16.7309 7.07867 16.7309 7.07292 16.7338C7.05852 16.7367 7.04701 16.7367 7.03261 16.7367C7.02686 16.7367 7.0211 16.7367 7.01246 16.7367C7.00095 16.7367 6.98943 16.7395 6.97792 16.7395C6.96928 16.7395 6.96353 16.7395 6.95489 16.7395C6.94337 16.7395 6.93474 16.7395 6.92322 16.7395H6.92035C6.91459 16.7395 6.90883 16.7395 6.90307 16.7395C6.89156 16.7395 6.88004 16.7395 6.86853 16.7395C6.85989 16.7395 6.85414 16.7395 6.8455 16.7395C6.83398 16.7395 6.82247 16.7395 6.81383 16.7395C6.81096 16.7395 6.81096 16.7395 6.80808 16.7395C6.80232 16.7395 6.79656 16.7395 6.79368 16.7395C6.78217 16.7395 6.76778 16.7395 6.75626 16.7367C6.74762 16.7367 6.74187 16.7367 6.73323 16.7338C6.72172 16.7338 6.7102 16.7309 6.69581 16.7309C6.69293 16.7309 6.68717 16.7309 6.68429 16.7309C6.68141 16.7309 6.67854 16.7309 6.67566 16.7309C6.65839 16.728 6.63823 16.7251 6.62096 16.7223C6.61808 16.7223 6.6152 16.7223 6.61233 16.7223C6.59218 16.7194 6.56915 16.7165 6.549 16.7107C6.54612 16.7107 6.54612 16.7107 6.54324 16.7107C6.53748 16.7107 6.53172 16.7079 6.52597 16.7079C6.51733 16.705 6.50582 16.705 6.49718 16.7021C6.48854 16.6992 6.47991 16.6992 6.47415 16.6964C6.46551 16.6935 6.454 16.6906 6.44536 16.6877C6.43673 16.6848 6.43097 16.6848 6.42233 16.682C6.4137 16.6791 6.40506 16.6762 6.39355 16.6733C6.38491 16.6704 6.37915 16.6676 6.37052 16.6647C6.36188 16.6618 6.35325 16.6589 6.34461 16.6561C6.34173 16.6561 6.33597 16.6532 6.33309 16.6532C6.33022 16.6532 6.32734 16.6503 6.32446 16.6503C6.30719 16.6445 6.29279 16.6388 6.27552 16.633C6.27264 16.633 6.26976 16.6301 6.26401 16.6301C6.24386 16.6215 6.22658 16.6129 6.20931 16.6042C6.20355 16.6014 6.20068 16.5985 6.19492 16.5985C6.18052 16.5927 6.16613 16.5841 6.15462 16.5783C6.14886 16.5754 6.1431 16.5726 6.14022 16.5697C6.12295 16.5611 6.10568 16.5495 6.08841 16.538C6.08265 16.5351 6.07977 16.5323 6.07401 16.5294C6.07114 16.5265 6.06538 16.5236 6.0625 16.5208C6.05674 16.515 6.04811 16.5121 6.04235 16.5064C6.03659 16.5035 6.03083 16.4977 6.02508 16.492C6.01932 16.4862 6.01356 16.4833 6.00493 16.4776C5.99917 16.4718 5.99341 16.4689 5.98765 16.4632C5.9819 16.4574 5.97614 16.4545 5.97038 16.4488C5.96462 16.443 5.95887 16.4402 5.95599 16.4344C5.95023 16.4286 5.94447 16.4229 5.93872 16.42C5.93584 16.4171 5.93296 16.4171 5.93296 16.4142C5.93008 16.4114 5.93008 16.4114 5.9272 16.4085C5.91856 16.3998 5.90993 16.3912 5.90129 16.3797C5.89841 16.3768 5.89553 16.3739 5.89266 16.3711C5.88114 16.3595 5.87251 16.3452 5.86387 16.3336C5.86387 16.3336 5.86387 16.3336 5.86387 16.3308C5.86099 16.3279 5.86099 16.325 5.85811 16.3221C5.85236 16.3135 5.8466 16.3077 5.84372 16.2991C5.84084 16.2933 5.83796 16.2905 5.83508 16.2847C5.8322 16.2761 5.82645 16.2703 5.82357 16.2617C5.82357 16.2588 5.82069 16.2588 5.82069 16.2559C5.81781 16.253 5.81781 16.2502 5.81781 16.2473C5.81493 16.2415 5.81205 16.2358 5.80918 16.23C5.8063 16.2243 5.80342 16.2185 5.80342 16.2156C5.80054 16.2099 5.79766 16.2041 5.79766 16.1983C5.79766 16.1955 5.79478 16.1926 5.79478 16.1897C5.79478 16.1868 5.7919 16.1839 5.7919 16.1811C5.78902 16.1753 5.78902 16.1696 5.78615 16.1638C5.78327 16.158 5.78327 16.1523 5.78039 16.1465C5.77751 16.1408 5.77751 16.135 5.77751 16.1293C5.77751 16.1264 5.77463 16.1235 5.77463 16.1206C5.77463 16.1177 5.77463 16.1149 5.77463 16.1149C5.77463 16.1091 5.77175 16.1033 5.77175 16.0976C5.77175 16.0918 5.77175 16.0861 5.76887 16.0803C5.76887 16.0746 5.76887 16.0688 5.76887 16.063C5.76887 16.0602 5.76887 16.0544 5.76887 16.0515C5.76887 16.0487 5.76887 16.0458 5.76887 16.04V16.0083C5.78327 16.017 5.79766 16.0256 5.81205 16.0343ZM1.35586 13.8004L2.01795 13.3312H3.70198H3.71637L5.6307 15.7061L5.60479 16.2156L3.50911 13.6968H3.07443H2.08704L1.93159 13.8004L1.68403 13.9674V14.9029L1.35586 15.0843V13.8004ZM8.79724 22.6581L12.0012 20.7265V25.5022L8.79724 27.5375V22.6581Z" fill="#D1D1D1"/>
</svg>
