<svg width="33" height="33" viewBox="0 0 33 33" fill="none" xmlns="http://www.w3.org/2000/svg">
<path fill-rule="evenodd" clip-rule="evenodd" d="M14.1167 19.6844V5.21613C14.1167 4.60585 14.6118 4.11072 15.2221 4.11072H31.7601C32.3704 4.11072 32.8655 4.60585 32.8655 5.21613V19.9175C32.8655 20.5278 32.3704 21.023 31.7601 21.023H28.3921C28.0581 22.4018 26.8174 23.4267 25.3349 23.4267C23.8524 23.4267 22.6146 22.4018 22.2778 21.023H15.4553C14.7155 21.023 14.1167 20.4242 14.1167 19.6844ZM24.0033 21.0201C24.0039 21.021 24.0044 21.022 24.005 21.023V21.0201H24.0033ZM23.7977 20.263C23.8006 20.5382 23.8748 20.7962 24.0033 21.0201H23.9963C24.2583 21.4893 24.7592 21.8088 25.3378 21.8088C25.9135 21.8088 26.4173 21.4922 26.6793 21.0201H26.6649C26.7771 20.8272 26.8491 20.6084 26.8664 20.3753V20.3666C26.8721 20.3062 26.8692 20.2428 26.8664 20.1824C26.8203 19.3764 26.1525 18.7373 25.3349 18.7373C24.4886 18.7373 23.8035 19.4195 23.7977 20.263ZM24.0589 6.96062L16.6003 11.2671C16.3441 11.4168 16.3441 11.791 16.6003 11.9379L24.0589 16.2444C24.318 16.3941 24.6404 16.2069 24.6404 15.9076V13.4952H29.563C29.9257 13.4952 30.2222 13.2016 30.2222 12.836V10.369C30.2222 10.0063 29.9286 9.70976 29.563 9.70976H24.6404V7.29743C24.6404 7.07001 24.4533 6.90881 24.2518 6.90881C24.1885 6.90881 24.1223 6.9232 24.0589 6.96062Z" fill="#D1D1D1"/>
<path d="M3.52051 13.7716V18.5387C3.52051 19.0741 3.95519 19.5059 4.48774 19.5059H6.92311C6.86265 19.7535 6.82523 20.0097 6.82523 20.2745C6.82523 22.0132 8.23579 23.4267 9.97739 23.4267C11.719 23.4267 13.1295 22.0161 13.1295 20.2745C13.1295 20.0097 13.0921 19.7535 13.0317 19.5059H13.8175V6.16611H7.87595C4.28912 6.16611 3.52051 11.3679 3.52051 13.7716ZM8.44017 20.2774C8.44017 19.4282 9.12818 18.7402 9.97739 18.7402C10.8266 18.7402 11.5146 19.4282 11.5146 20.2774C11.5146 21.1266 10.8266 21.8146 9.97739 21.8146C9.12818 21.8146 8.44017 21.1266 8.44017 20.2774ZM5.05772 13.0289C5.05772 11.342 5.59604 7.69181 8.112 7.69181H11.7449V10.8209C8.92091 11.2355 6.44813 14.3099 5.44347 14.3099H5.43771C5.22469 14.307 5.05772 14.1257 5.05772 13.9155V13.0289Z" fill="#D1D1D1"/>
<path d="M2.349 23.4756V3.01686C2.349 2.64838 2.64839 2.34612 3.01973 2.34612H5.87251C6.52021 2.34612 7.04701 1.81933 7.04701 1.17162C7.04701 0.52392 6.51733 0 5.86963 0H3.01686C1.35298 0 0 1.35298 0 3.01686V23.4756V29.2877C0 31.2653 1.60342 32.8659 3.5782 32.8659H29.2848C31.2625 32.8659 32.863 31.2625 32.863 29.2877V23.4756H2.349Z" fill="#D1D1D1"/>
</svg>
