<svg width="33" height="33" viewBox="0 0 33 33" fill="none" xmlns="http://www.w3.org/2000/svg">
<path d="M18.7344 31.406V31.1202C18.7344 29.7453 19.5805 28.5361 20.844 27.9959C20.9898 27.933 21.1355 27.8672 21.2785 27.7986C22.5505 27.1926 24.0683 27.4842 25.0631 28.479L25.2803 28.6962C25.7605 29.1764 26.538 29.1764 27.0183 28.6962L28.6991 27.0154C29.1793 26.5352 29.1793 25.7577 28.6991 25.2775L28.2446 24.823C27.2813 23.8597 27.0097 22.4161 27.5156 21.1527C27.5414 21.0927 27.5642 21.0298 27.5871 20.9669C28.0931 19.6377 29.3365 18.7344 30.76 18.7344H31.4089C32.0863 18.7344 32.638 18.1827 32.638 17.5053V15.1299C32.638 14.4496 32.0863 13.9007 31.4089 13.9007H30.6028C29.2164 13.9007 27.9959 13.0432 27.4671 11.7598C27.4556 11.734 27.447 11.7112 27.4356 11.6854C26.8954 10.3963 27.1412 8.91271 28.1302 7.92654L28.6991 7.35771C29.1793 6.87748 29.1793 6.09998 28.6991 5.61976L27.0183 3.93897C26.538 3.45875 25.7605 3.45875 25.2803 3.93897L24.7887 4.43063C23.7825 5.43681 22.2704 5.67121 20.9697 5.09665C20.9212 5.07379 20.8697 5.05378 20.8182 5.03091C19.5634 4.49638 18.7373 3.28153 18.7373 1.91803V1.22914C18.7373 0.548827 18.1856 0 17.5081 0H15.1327C14.4524 0 13.9036 0.551685 13.9036 1.22914V1.60074C13.9036 3.00425 13.0432 4.28199 11.7226 4.75364C11.5654 4.81081 11.411 4.86798 11.2567 4.93086C10.0189 5.4311 8.604 5.18241 7.6607 4.23911L7.36056 3.93897C6.88034 3.45875 6.10284 3.45875 5.62261 3.93897L3.92754 5.63405C3.45589 6.1057 3.45589 6.87177 3.92754 7.34627C4.93086 8.3496 5.24244 9.88459 4.63072 11.168C4.53068 11.3796 4.43635 11.594 4.34774 11.8112C3.83607 13.0661 2.63837 13.9007 1.28345 13.9007H1.23772C0.548827 13.9007 0 14.4524 0 15.1299V17.6625C0 18.2542 0.480223 18.7344 1.07193 18.7344C2.49545 18.7344 3.73888 19.6377 4.24483 20.9669C4.32201 21.1727 4.4049 21.3728 4.49352 21.5729C5.06807 22.8735 4.83082 24.3856 3.82749 25.3918C3.41016 25.8091 3.41016 26.4866 3.82749 26.9039L5.65692 28.7334C6.11713 29.1936 6.86605 29.1936 7.32626 28.7334C8.31244 27.7472 9.79598 27.4985 11.0823 28.0387C11.2652 28.1159 11.4539 28.1902 11.6426 28.2589C12.9832 28.7476 13.9036 29.9854 13.9036 31.4117C13.9036 32.0892 14.4524 32.638 15.1299 32.638H17.5081C18.1856 32.6352 18.7344 32.0863 18.7344 31.406ZM15.916 24.1741C11.6883 24.1741 8.26098 20.7468 8.26098 16.5191C8.26098 12.2914 11.6883 8.86412 15.916 8.86412C20.1437 8.86412 23.571 12.2914 23.571 16.5191C23.571 20.7468 20.1437 24.1741 15.916 24.1741Z" fill="#D1D1D1"/>
<path d="M15.885 21.2356C18.5214 21.2356 20.6586 19.0984 20.6586 16.4619C20.6586 13.8255 18.5214 11.6883 15.885 11.6883C13.2486 11.6883 11.1113 13.8255 11.1113 16.4619C11.1113 19.0984 13.2486 21.2356 15.885 21.2356Z" fill="#D1D1D1"/>
</svg>
