<svg width="33" height="33" viewBox="0 0 33 33" fill="none" xmlns="http://www.w3.org/2000/svg">
<path d="M26.7759 26.6181L29.4628 29.0964C30.0574 28.4503 30.4233 27.5871 30.4233 26.6409C30.4233 25.6004 29.9831 24.6629 29.2828 24.0026L26.7759 26.6181Z" fill="#D1D1D1"/>
<path d="M26.5872 7.00897H31.721L25.8354 0.991882V6.27148C25.8354 6.67738 26.1728 7.00897 26.5872 7.00897Z" fill="#D1D1D1"/>
<path d="M26.6724 8.91557C25.2146 8.91557 24.0283 7.72931 24.0283 6.27149V0H9.76454C8.02659 0 6.61736 1.40923 6.61736 3.14718V5.47969H3.09001C1.38636 5.48255 0 6.86605 0 8.5697V29.5366C0 31.2402 1.38636 32.6237 3.09001 32.6237H9.66449C9.69879 32.6237 9.73024 32.6352 9.7674 32.6352H29.4909C31.2288 32.6352 32.638 31.2259 32.638 29.488V8.91557H26.6724ZM29.4308 11.271C29.7081 11.271 29.9368 11.4968 29.9368 11.7769C29.9368 12.057 29.711 12.2829 29.4308 12.2829H10.422C10.1419 12.2829 9.91604 12.057 9.91604 11.7769C9.91604 11.4968 10.1419 11.271 10.422 11.271H29.4308ZM10.3734 28.2617H20.3552C20.6353 28.2617 20.8611 28.4875 20.8611 28.7677C20.8611 29.0449 20.6353 29.2736 20.3552 29.2736H10.3734C10.0933 29.2736 9.86744 29.0478 9.86744 28.7677C9.8703 28.4875 10.0961 28.2617 10.3734 28.2617ZM20.3552 25.569H11.271C10.9937 25.569 10.765 25.3432 10.765 25.0631C10.765 24.7829 10.9908 24.5571 11.271 24.5571H20.3552C20.6353 24.5571 20.8611 24.7829 20.8611 25.0631C20.8611 25.3432 20.6353 25.569 20.3552 25.569ZM10.3734 21.1956C10.0933 21.1956 9.86744 20.9697 9.86744 20.6896C9.86744 20.4095 10.0933 20.1837 10.3734 20.1837H29.3822C29.6595 20.1837 29.8882 20.4095 29.8882 20.6896C29.8882 20.9669 29.6624 21.1956 29.3822 21.1956H10.3734ZM10.8136 16.3705C10.8136 16.0903 11.0394 15.8645 11.3195 15.8645H28.3103C28.5876 15.8645 28.8163 16.0903 28.8163 16.3705C28.8163 16.6477 28.5904 16.8764 28.3103 16.8764H11.3195C11.0394 16.8736 10.8136 16.6477 10.8136 16.3705ZM1.16626 29.5366V8.5697C1.16626 7.5092 2.02952 6.64595 3.09001 6.64595H6.61736V11.0709H4.66217C4.33916 11.0709 4.07904 11.331 4.07904 11.654C4.07904 11.977 4.33916 12.2371 4.66217 12.2371H6.61736V15.1499H5.2453C4.92229 15.1499 4.66217 15.41 4.66217 15.733C4.66217 16.056 4.92229 16.3162 5.2453 16.3162H6.61736V19.2289H4.66217C4.33916 19.2289 4.07904 19.4891 4.07904 19.8121C4.07904 20.1351 4.33916 20.3952 4.66217 20.3952H6.61736V23.308H5.2453C4.92229 23.308 4.66217 23.5681 4.66217 23.8911C4.66217 24.2141 4.92229 24.4742 5.2453 24.4742H6.61736V26.8067H4.66217C4.33916 26.8067 4.07904 27.0669 4.07904 27.3899C4.07904 27.7129 4.33916 27.973 4.66217 27.973H6.61736V29.488C6.61736 30.2398 6.89177 30.9201 7.32912 31.4603H3.09001C2.02952 31.4603 1.16626 30.5971 1.16626 29.5366ZM26.3265 31.2345C23.8025 31.2345 21.7558 29.1879 21.7558 26.6638C21.7558 24.1398 23.8025 22.0931 26.3265 22.0931C28.8506 22.0931 30.8972 24.1398 30.8972 26.6638C30.8972 29.1879 28.8506 31.2345 26.3265 31.2345Z" fill="#D1D1D1"/>
</svg>
