<svg width="74" height="40" viewBox="0 0 74 40" fill="none" xmlns="http://www.w3.org/2000/svg">
<path d="M72.6487 27.8919C73.6935 27.5337 74.2501 26.3962 73.8919 25.3514C73.5337 24.3065 72.3962 23.7499 71.3513 24.1081L72.6487 27.8919ZM37 38L36.3514 39.8919C36.7718 40.036 37.2282 40.036 37.6486 39.8919L37 38ZM2.64865 24.1081C1.60379 23.7499 0.466347 24.3065 0.108108 25.3514C-0.250131 26.3962 0.306488 27.5337 1.35135 27.8919L2.64865 24.1081ZM71.3513 24.1081L36.3514 36.1081L37.6486 39.8919L72.6487 27.8919L71.3513 24.1081ZM37.6486 36.1081L2.64865 24.1081L1.35135 27.8919L36.3514 39.8919L37.6486 36.1081Z" fill="white" fill-opacity="0.55"/>
<path d="M72.5997 15.908C73.6534 15.5768 74.2392 14.4541 73.908 13.4003C73.5768 12.3466 72.4541 11.7608 71.4003 12.092L72.5997 15.908ZM37 25L36.4003 26.908C36.7907 27.0307 37.2093 27.0307 37.5997 26.908L37 25ZM2.59965 12.092C1.5459 11.7608 0.423192 12.3466 0.0920125 13.4003C-0.239167 14.4541 0.346594 15.5768 1.40035 15.908L2.59965 12.092ZM71.4003 12.092L36.4003 23.092L37.5997 26.908L72.5997 15.908L71.4003 12.092ZM37.5997 23.092L2.59965 12.092L1.40035 15.908L36.4003 26.908L37.5997 23.092Z" fill="white" fill-opacity="0.55"/>
<path d="M72.6487 3.89189C73.6935 3.53365 74.2501 2.39621 73.8919 1.35135C73.5337 0.306488 72.3962 -0.250131 71.3513 0.108108L72.6487 3.89189ZM37 14L36.3514 15.8919C36.7718 16.036 37.2282 16.036 37.6486 15.8919L37 14ZM2.64865 0.108108C1.60379 -0.250131 0.466347 0.306488 0.108108 1.35135C-0.250131 2.39621 0.306488 3.53365 1.35135 3.89189L2.64865 0.108108ZM71.3513 0.108108L36.3514 12.1081L37.6486 15.8919L72.6487 3.89189L71.3513 0.108108ZM37.6486 12.1081L2.64865 0.108108L1.35135 3.89189L36.3514 15.8919L37.6486 12.1081Z" fill="white" fill-opacity="0.55"/>
</svg>
